<?xml version="1.0" standalone="no"?>
<!DOCTYPE svg PUBLIC "-//W3C//DTD SVG 20010904//EN"
 "http://www.w3.org/TR/2001/REC-SVG-20010904/DTD/svg10.dtd">
<svg version="1.0" xmlns="http://www.w3.org/2000/svg"
 width="283.000000pt" height="178.000000pt" viewBox="0 0 283.000000 178.000000"
 preserveAspectRatio="xMidYMid meet">
<metadata>
Created by potrace 1.10, written by Peter Selinger 2001-2011
</metadata>
<g transform="translate(0.000000,178.000000) scale(0.100000,-0.100000)"
fill="#ff0000" stroke="">
<path d="M1357 1373 l-77 -97 0 -170 c0 -151 2 -168 15 -150 11 15 14 52 15
163 l0 144 41 54 c23 29 44 53 48 53 3 0 5 -64 3 -142 -3 -126 -1 -141 12
-128 11 12 15 52 18 193 2 97 3 177 3 177 -1 0 -35 -44 -78 -97z"/>
<path d="M1460 1413 c0 -9 27 -41 60 -70 53 -49 60 -59 60 -93 0 -22 8 -47 18
-60 18 -22 18 -21 14 46 l-3 69 -67 62 c-72 66 -82 72 -82 46z"/>
<path d="M1520 906 l0 -316 -231 0 -230 0 45 58 c43 55 46 62 46 120 l0 62 30
0 c28 0 30 -2 30 -40 l0 -41 47 58 c82 102 156 188 162 190 3 1 21 -16 39 -39
30 -38 32 -39 32 -15 0 21 -55 105 -70 106 -3 1 -43 -46 -90 -103 -47 -58 -86
-101 -88 -95 -2 5 -33 9 -69 9 l-66 0 5 -72 6 -73 -59 -72 c-33 -40 -59 -75
-59 -78 0 -3 124 -5 275 -5 l275 0 0 293 1 292 46 -50 46 -50 -2 -242 -2 -243
101 0 102 0 -31 37 c-17 21 -49 58 -71 83 -40 44 -40 44 -34 15 4 -16 19 -44
35 -60 16 -17 29 -34 29 -38 0 -4 -20 -7 -45 -7 l-45 0 0 233 -1 232 -79 84
-80 84 0 -317z"/>
<path d="M1350 760 l0 -60 60 0 60 0 0 60 0 60 -60 0 -60 0 0 -60z m90 0 c0
-27 -3 -30 -30 -30 -27 0 -30 3 -30 30 0 27 3 30 30 30 27 0 30 -3 30 -30z"/>
<path d="M553 448 c-12 -6 -27 -23 -33 -38 -23 -57 31 -112 94 -96 40 10 31
25 -12 19 -44 -6 -72 14 -72 51 0 37 33 60 77 53 35 -6 36 -5 19 8 -23 17 -42
18 -73 3z"/>
<path d="M698 445 c-47 -26 -46 -99 2 -125 47 -25 103 0 116 52 5 22 0 33 -24
58 -34 33 -54 36 -94 15z m84 -22 c38 -34 12 -93 -42 -93 -53 0 -78 53 -43 92
20 22 61 23 85 1z"/>
<path d="M850 387 c0 -51 4 -77 11 -77 8 0 10 17 5 55 -3 30 -4 55 -2 55 2 0
16 -20 31 -45 14 -25 30 -43 36 -40 5 4 18 24 29 46 11 21 23 39 27 39 3 0 3
-25 0 -55 -3 -31 -2 -55 4 -55 5 0 9 34 9 75 0 41 -2 75 -5 75 -3 0 -19 -25
-36 -56 l-32 -56 -27 47 c-46 78 -50 78 -50 -8z"/>
<path d="M1051 383 c1 -43 4 -66 6 -50 4 24 9 27 42 27 42 0 61 14 61 46 0 29
-36 54 -77 54 l-33 0 1 -77z m88 39 c15 -28 -5 -52 -44 -52 -33 0 -35 2 -35
35 0 33 2 35 35 35 23 0 38 -6 44 -18z"/>
<path d="M1223 423 c-8 -21 -24 -55 -34 -75 -12 -23 -15 -38 -8 -38 6 0 13 9
16 20 4 16 14 20 48 20 35 0 45 -4 50 -20 3 -11 11 -20 17 -20 11 0 12 -4 -27
83 -16 37 -34 67 -38 67 -4 0 -15 -17 -24 -37z m42 -23 c20 -39 20 -40 -20
-40 l-35 0 17 35 c9 19 18 35 20 35 1 0 9 -13 18 -30z"/>
<path d="M1340 386 c0 -88 18 -103 22 -19 l3 57 44 -57 c24 -31 47 -57 52 -57
5 0 9 34 9 75 0 43 -4 75 -10 75 -6 0 -10 -27 -10 -61 l0 -61 -46 58 c-25 33
-49 61 -55 62 -5 2 -9 -29 -9 -72z"/>
<path d="M1490 455 c0 -3 12 -23 26 -45 15 -22 30 -54 34 -72 7 -29 8 -30 9
-7 1 14 15 46 31 72 32 51 34 57 22 57 -5 0 -18 -18 -31 -40 -12 -22 -24 -40
-26 -40 -2 0 -14 18 -26 40 -20 34 -39 52 -39 35z"/>
<path d="M1700 385 c0 -48 4 -75 11 -75 7 0 10 20 7 55 -1 30 -1 55 2 55 3 0
23 -25 45 -55 22 -30 43 -54 48 -55 4 0 7 34 7 75 0 41 -4 75 -9 75 -5 0 -7
-28 -4 -62 l5 -63 -26 30 c-14 17 -36 45 -48 62 -13 18 -26 33 -30 33 -5 0 -8
-34 -8 -75z"/>
<path d="M1901 437 c-5 -12 -20 -46 -34 -75 -14 -29 -21 -52 -16 -52 4 0 13 9
19 20 8 15 21 20 50 20 30 0 40 -5 45 -20 3 -11 11 -20 17 -20 5 0 8 4 6 8
-36 88 -63 142 -70 142 -5 0 -12 -10 -17 -23z m32 -24 c2 -10 8 -26 12 -35 6
-15 2 -18 -24 -18 -34 0 -37 6 -19 45 13 29 24 32 31 8z"/>
<path d="M2018 385 c-2 -41 0 -75 4 -75 4 0 8 26 10 57 l3 58 25 -48 c14 -26
28 -47 32 -47 10 0 51 81 44 87 -2 3 -13 -12 -24 -32 l-19 -38 -32 57 c-18 31
-34 56 -36 56 -2 0 -5 -34 -7 -75z"/>
<path d="M2148 448 c-7 -23 4 -138 13 -138 5 0 9 34 9 75 0 67 -11 97 -22 63z"/>
<path d="M2210 385 l0 -75 55 0 c34 0 55 4 55 11 0 8 -15 10 -45 7 -44 -5 -45
-5 -45 23 0 26 3 28 43 32 l42 4 -42 1 c-39 2 -43 5 -43 27 0 23 4 25 45 25
25 0 45 5 45 10 0 6 -25 10 -55 10 l-55 0 0 -75z"/>
</g>
</svg>
