<?xml version="1.0" standalone="no"?>
<!DOCTYPE svg PUBLIC "-//W3C//DTD SVG 20010904//EN"
 "http://www.w3.org/TR/2001/REC-SVG-20010904/DTD/svg10.dtd">
<svg version="1.0" xmlns="http://www.w3.org/2000/svg"
 width="225.000000pt" height="225.000000pt" viewBox="0 0 225.000000 225.000000"
 preserveAspectRatio="xMidYMid meet">
<metadata>
Created by potrace 1.10, written by Peter Selinger 2001-2011
</metadata>
<g transform="translate(0.000000,225.000000) scale(0.100000,-0.100000)"
fill="#000000" stroke="none">
<path d="M994 1772 c-25 -17 -44 -60 -44 -99 0 -49 -13 -54 -53 -23 -56 44
-110 -9 -69 -67 10 -15 27 -43 36 -60 16 -32 16 -34 -8 -70 -26 -40 -46 -127
-46 -198 0 -45 82 -294 100 -305 7 -4 20 -5 30 -3 12 3 22 -3 29 -16 13 -23
41 -27 59 -9 18 18 30 0 39 -57 8 -44 12 -50 32 -47 13 1 30 -3 37 -9 9 -7 19
-7 34 1 25 14 32 9 36 -25 3 -31 -9 -39 -35 -24 -15 10 -24 9 -45 -4 -24 -16
-28 -16 -50 -2 -20 13 -29 14 -46 5 -14 -8 -31 -8 -53 -2 -18 6 -87 9 -154 8
-125 -3 -146 -9 -158 -46 -5 -16 -10 -14 -40 18 l-33 37 -29 -21 c-34 -26 -44
-91 -18 -130 15 -23 20 -24 138 -24 117 0 173 -11 135 -25 -9 -4 -25 -2 -36 4
-39 21 -63 -52 -29 -87 14 -13 20 -14 40 -3 19 10 29 10 47 1 17 -9 28 -9 51
0 23 10 32 10 44 0 13 -11 20 -11 39 0 18 9 28 9 46 0 16 -9 29 -9 49 0 19 7
36 8 53 1 14 -5 29 -7 32 -4 12 12 100 12 114 1 10 -9 22 -8 48 1 27 10 38 10
49 1 12 -10 21 -10 44 0 23 9 33 9 49 -1 16 -10 23 -10 34 2 22 22 28 47 18
74 -12 33 18 51 59 37 38 -14 112 -4 135 18 14 14 17 26 11 59 -4 22 -15 51
-25 63 -18 22 -47 26 -135 20 -70 -6 -272 1 -279 9 -12 12 17 58 37 61 34 5
60 65 54 120 -5 41 -2 52 19 77 22 27 25 61 4 61 -20 0 -16 34 10 84 48 95 48
120 -4 201 -76 120 -96 146 -126 163 l-29 17 2 95 2 95 -28 3 c-32 4 -64 -19
-78 -55 -12 -32 -25 -29 -45 12 -9 19 -31 44 -49 55 -36 23 -36 22 -51 12z
m49 -47 c24 -21 27 -31 22 -55 -6 -25 -3 -31 19 -41 19 -9 32 -9 56 1 29 12
35 24 32 62 -1 10 11 24 29 34 30 15 31 15 24 -8 -4 -13 -11 -27 -16 -32 -14
-15 -11 -26 6 -20 19 8 19 3 0 -32 -8 -16 -15 -39 -15 -51 0 -20 -3 -21 -55
-16 -31 3 -66 1 -78 -4 -12 -6 -48 -18 -79 -27 -32 -9 -60 -21 -63 -26 -10
-16 -25 -11 -25 8 0 22 52 48 132 67 32 8 43 14 27 14 -14 1 -57 -10 -96 -23
-49 -16 -75 -21 -87 -14 -9 5 -14 13 -11 17 2 5 -4 16 -15 26 -27 24 -25 35 5
35 14 0 25 -4 25 -9 0 -19 32 -41 59 -41 15 0 36 9 47 21 15 16 16 24 6 39
-15 24 -15 41 -2 74 12 32 18 32 53 1z m186 -204 c24 -9 49 -25 55 -36 6 -11
24 -37 39 -57 16 -21 26 -38 22 -38 -4 0 12 -22 34 -49 23 -27 41 -52 41 -55
0 -11 -36 -6 -48 6 -9 9 -12 8 -12 -5 0 -9 6 -17 13 -17 6 0 19 -4 27 -10 12
-7 11 -12 -5 -30 -15 -16 -25 -19 -54 -14 -35 6 -81 38 -81 56 0 5 9 12 21 16
18 7 16 10 -20 20 -70 21 -91 75 -43 111 l27 20 -31 1 c-35 0 -52 -23 -56 -80
l-3 -35 -19 40 c-13 29 -16 55 -13 95 l5 55 -20 -43 c-14 -32 -18 -59 -16
-110 3 -58 5 -63 12 -35 9 36 26 35 26 -1 0 -24 56 -116 71 -116 5 0 9 10 9
23 0 12 5 29 10 37 8 12 10 9 10 -12 0 -39 17 -79 48 -110 26 -29 17 -36 -21
-17 -16 7 -13 3 8 -15 16 -14 51 -30 79 -37 45 -11 48 -13 31 -25 -10 -8 -29
-14 -41 -14 -22 0 -22 -1 -7 -51 15 -50 11 -133 -6 -144 -5 -2 -11 22 -14 54
-3 33 -10 67 -17 78 -9 15 -10 12 -5 -19 3 -21 1 -57 -5 -80 -12 -42 -49 -113
-56 -105 -2 2 3 36 11 75 15 70 14 100 -6 152 -5 14 -16 59 -24 100 l-15 75 7
-90 c9 -138 6 -169 -22 -225 -28 -56 -44 -61 -26 -9 17 50 13 157 -9 234 -11
38 -20 90 -20 115 -1 30 -3 40 -9 30 -8 -14 -6 -53 14 -226 6 -44 3 -76 -9
-117 -22 -76 -35 -80 -29 -9 4 47 -1 76 -26 155 -34 107 -39 169 -16 224 20
48 19 60 -4 39 -11 -10 -17 -25 -14 -34 4 -8 2 -13 -3 -10 -14 9 -17 -100 -3
-182 10 -67 10 -79 -6 -115 l-18 -40 -7 50 c-4 28 -15 78 -24 111 -18 71 -20
130 -6 171 9 26 9 27 -5 9 -17 -22 -20 -49 -16 -153 3 -78 -6 -156 -18 -148
-5 2 -11 26 -14 53 -3 26 -19 83 -36 125 -41 103 -42 166 -2 229 43 67 104
106 66 41 -14 -23 -14 -24 -1 -8 9 11 33 37 53 58 39 40 39 43 -1 27 -14 -5
-26 -17 -26 -26 0 -10 -3 -14 -6 -11 -9 9 -39 -9 -87 -51 l-41 -37 20 34 c28
49 106 115 152 129 21 7 60 12 86 12 29 0 45 4 41 10 -8 12 44 3 104 -19z
m129 -321 c20 0 14 -27 -13 -57 -15 -17 -23 -21 -19 -10 4 12 -2 24 -21 39
-21 16 -24 23 -13 30 7 4 22 6 33 3 11 -2 26 -5 33 -5z m-748 -501 c0 -39 0
-39 40 -39 29 0 40 -4 40 -15 0 -12 -14 -15 -65 -15 l-65 0 0 48 c0 55 1 57
30 59 17 2 20 -4 20 -38z m132 -16 c3 -49 1 -53 -19 -53 -21 0 -23 5 -23 54 0
48 2 55 19 53 16 -1 20 -10 23 -54z m145 36 c16 -14 17 -61 1 -77 -17 -17
-103 -15 -117 2 -20 24 -9 69 19 84 27 13 74 9 97 -9z m114 -20 l28 -34 1 36
c0 31 3 35 23 34 12 -1 21 -5 20 -8 -2 -4 -3 -27 -3 -52 0 -43 -2 -45 -27 -45
-20 1 -36 11 -57 38 l-28 37 4 -37 c4 -34 2 -38 -19 -38 -21 0 -23 4 -23 53 0
51 1 53 26 52 17 -1 37 -14 55 -36z m172 12 c-3 -26 1 -26 40 1 29 21 87 37
87 24 0 -3 -16 -16 -36 -30 l-36 -24 38 -26 39 -26 -34 0 c-19 0 -43 8 -54 17
-18 17 -19 17 -32 0 -6 -9 -22 -17 -34 -17 -19 0 -21 5 -21 55 0 51 1 55 23
51 16 -2 21 -10 20 -25z m184 -29 c1 -49 0 -52 -23 -52 -22 0 -24 4 -24 53 0
49 2 54 23 52 19 -1 22 -7 24 -53z m102 17 l32 -34 -3 34 c-3 28 1 34 20 37
21 4 22 0 22 -51 0 -54 -1 -55 -28 -55 -22 0 -35 9 -55 37 l-27 38 0 -38 c0
-32 -3 -37 -22 -37 -21 0 -23 4 -20 53 3 47 6 52 26 52 13 -1 37 -17 55 -36z
m218 20 c23 -20 14 -27 -23 -19 -42 10 -64 4 -64 -16 0 -18 32 -32 38 -16 2 7
17 12 33 12 24 0 29 -4 29 -24 0 -21 -4 -23 -59 -25 -66 -2 -84 11 -79 56 5
47 82 67 125 32z m-562 -120 c0 -8 -10 -15 -22 -17 -25 -4 -30 7 -11 26 15 15
33 10 33 -9z m144 -4 c1 -2 0 -9 -4 -15 -5 -8 -10 -8 -20 0 -7 6 -25 8 -39 4
-25 -6 -34 4 -19 20 7 7 73 -1 82 -9z m199 3 c-7 -19 -38 -22 -38 -4 0 10 9
16 21 16 12 0 19 -5 17 -12z m-678 -52 c0 -13 6 -27 13 -29 6 -3 2 -6 -10 -6
-19 -1 -23 4 -23 29 0 17 5 30 10 30 6 0 10 -11 10 -24z m77 4 c-3 -11 -1 -23
4 -26 5 -3 9 6 9 20 0 14 5 26 11 26 6 0 9 -12 7 -27 -2 -20 -9 -29 -25 -31
-20 -3 -23 1 -23 27 0 17 5 31 11 31 6 0 9 -9 6 -20z m94 8 c0 -10 2 -10 6 0
9 22 20 12 19 -18 -1 -29 -15 -43 -17 -17 0 10 -2 10 -6 0 -9 -23 -20 -14 -20
17 0 28 16 44 18 18z m90 -15 l2 -28 4 28 c2 15 9 27 14 27 6 0 9 -12 7 -27
-2 -20 -9 -28 -23 -28 -14 0 -21 8 -23 28 -2 15 1 27 7 27 6 0 12 -12 12 -27z
m116 -6 c1 -15 -2 -27 -8 -27 -5 0 -9 6 -10 13 0 10 -2 10 -6 0 -9 -25 -19
-13 -15 18 6 39 36 36 39 -4z m63 3 c0 -16 -4 -30 -10 -30 -5 0 -10 14 -10 30
0 17 5 30 10 30 6 0 10 -13 10 -30z m95 0 c0 -18 -6 -26 -21 -28 -26 -4 -40
24 -23 45 18 21 44 11 44 -17z m65 3 c0 -29 15 -22 23 12 3 13 5 8 6 -13 1
-29 -2 -33 -21 -30 -17 2 -24 11 -26 31 -2 15 1 27 7 27 6 0 11 -12 11 -27z
m107 12 c-4 -8 -2 -17 4 -20 5 -4 7 -11 4 -16 -9 -13 -45 -11 -45 2 0 6 7 8
18 4 14 -5 15 -4 5 6 -18 18 -16 39 3 39 10 0 14 -6 11 -15z"/>
<path d="M1260 1389 c14 -6 36 -20 49 -32 l24 -22 -17 33 c-14 26 -22 32 -49
31 -31 0 -32 0 -7 -10z"/>
<path d="M810 695 c-15 -18 -5 -35 20 -35 10 0 22 5 25 10 7 11 -12 40 -25 40
-4 0 -13 -7 -20 -15z"/>
</g>
</svg>
