<?xml version="1.0" standalone="no"?>
<!DOCTYPE svg PUBLIC "-//W3C//DTD SVG 20010904//EN"
 "http://www.w3.org/TR/2001/REC-SVG-20010904/DTD/svg10.dtd">
<svg version="1.0" xmlns="http://www.w3.org/2000/svg"
 width="225.000000pt" height="225.000000pt" viewBox="0 0 225.000000 225.000000"
 preserveAspectRatio="xMidYMid meet">
<metadata>
Created by potrace 1.10, written by Peter Selinger 2001-2011
</metadata>
<g transform="translate(0.000000,225.000000) scale(0.100000,-0.100000)"
fill="#000000" stroke="none">
<path d="M1040 1830 c0 -5 -13 -7 -30 -3 -19 3 -30 1 -30 -6 0 -7 -9 -9 -26
-5 -17 4 -25 3 -21 -3 4 -6 -4 -8 -21 -6 -19 3 -23 2 -14 -5 10 -7 4 -11 -22
-16 -20 -4 -36 -11 -36 -16 0 -4 -13 -11 -30 -15 -17 -4 -30 -13 -30 -22 0 -9
-6 -13 -14 -10 -10 4 -13 1 -9 -9 3 -9 -1 -14 -11 -14 -9 0 -19 -7 -22 -15 -4
-8 -12 -15 -20 -15 -8 0 -11 -6 -8 -15 4 -10 2 -13 -8 -10 -8 3 -21 -1 -28
-10 -7 -9 -8 -15 -2 -15 6 0 13 6 15 13 4 9 6 9 6 -1 1 -7 -5 -15 -13 -18 -8
-3 -12 -12 -10 -19 3 -7 -4 -19 -16 -25 -29 -15 -39 -4 -14 16 18 15 18 15 -3
5 -12 -6 -23 -16 -25 -22 -3 -8 -10 -6 -21 5 -15 16 -17 15 -23 -10 -4 -15 -2
-35 5 -46 6 -10 9 -23 6 -27 -3 -5 2 -12 11 -15 10 -4 14 -12 10 -22 -6 -15
-4 -15 11 -3 9 8 14 9 10 2 -4 -6 4 -20 18 -31 24 -19 36 -40 15 -27 -5 3 -10
2 -10 -3 0 -6 -7 -12 -15 -16 -9 -3 -23 7 -38 29 -13 19 -27 32 -30 28 -4 -3
-7 2 -7 12 0 10 -3 16 -6 12 -19 -18 33 -83 125 -156 104 -81 247 -138 374
-148 61 -5 77 -9 77 -22 0 -26 -64 -146 -105 -195 -37 -46 -163 -146 -183
-146 -6 0 -14 -4 -17 -10 -4 -6 1 -7 11 -3 13 5 15 3 9 -7 -6 -10 -4 -12 9 -7
10 4 15 3 11 -3 -3 -6 -12 -10 -19 -10 -8 0 -19 -7 -26 -15 -11 -13 -9 -14 16
-2 198 88 343 254 377 433 l6 31 -85 12 c-234 33 -411 130 -515 283 -21 31
-39 62 -39 68 0 7 21 -6 48 -28 103 -86 270 -175 397 -212 117 -34 368 -40
349 -8 -4 7 -2 8 4 4 13 -8 16 13 4 29 -4 6 -71 10 -164 10 -86 0 -160 4 -165
9 -12 12 53 64 117 95 48 22 68 26 150 26 59 0 106 -5 125 -14 l30 -13 -32
-14 c-32 -14 -50 -45 -37 -65 5 -8 3 -9 -6 -4 -8 5 -11 3 -9 -4 8 -22 24 -12
32 18 7 29 36 51 38 28 0 -7 4 -2 9 11 15 35 28 26 26 -17 -1 -22 1 -38 5 -35
9 5 24 -80 21 -111 -6 -46 -47 -162 -68 -191 -13 -17 -20 -35 -16 -39 4 -4 -3
-2 -16 4 -12 7 -21 8 -20 4 4 -15 -14 -53 -22 -48 -5 3 -12 0 -17 -8 -11 -18
-61 -38 -68 -27 -3 5 1 12 8 17 24 14 47 57 47 85 0 16 5 28 11 28 5 0 7 4 4
10 -3 5 2 21 11 35 9 14 19 54 22 90 2 36 9 65 14 65 5 0 6 5 3 10 -12 19 -32
-8 -39 -53 -19 -122 -85 -250 -176 -343 -87 -89 -175 -134 -369 -190 -8 -3
-11 -7 -8 -10 7 -8 119 16 134 28 7 6 24 8 38 6 13 -3 22 -2 20 2 -9 14 27 20
43 8 10 -8 13 -9 9 -2 -4 7 0 15 9 18 8 3 13 10 10 15 -3 5 0 9 7 8 34 -1 48
4 41 15 -4 6 -3 8 4 4 5 -3 13 0 15 6 4 10 6 10 6 0 1 -18 34 1 90 53 25 23
67 54 93 69 217 126 264 455 92 646 -129 142 -339 183 -510 100 -60 -29 -135
-92 -166 -138 -16 -23 -17 -23 -42 -7 -14 10 -26 24 -26 33 0 30 131 147 205
182 235 112 513 27 650 -200 89 -147 92 -346 8 -502 -39 -71 -150 -173 -225
-207 -73 -33 -154 -54 -171 -46 -7 4 -3 -1 8 -10 13 -11 30 -14 50 -10 28 5
28 5 10 -10 -11 -8 15 1 58 20 43 19 82 33 87 30 4 -3 18 -1 31 3 l23 9 -22 5
c-14 4 -20 2 -15 -4 3 -7 1 -8 -6 -4 -13 9 -5 27 12 25 26 -3 36 2 31 15 -3 7
2 16 11 20 9 3 13 2 10 -3 -3 -5 0 -13 6 -17 7 -4 9 -3 6 3 -4 6 3 23 15 38
16 21 23 24 30 13 6 -9 7 -6 3 10 -5 17 -2 22 11 22 10 0 15 3 11 6 -8 9 52
99 66 99 7 0 12 11 13 25 0 14 8 49 17 79 9 29 14 57 11 62 -3 5 -1 17 5 27
12 22 -5 173 -21 183 -6 4 -8 14 -5 22 8 21 -16 94 -29 90 -7 -2 -14 8 -18 22
-4 14 -11 25 -17 25 -6 0 -7 5 -4 10 3 6 -1 13 -9 16 -9 3 -13 11 -9 17 3 5 1
7 -4 4 -11 -7 -50 30 -45 42 1 3 -4 6 -10 6 -7 0 -13 7 -13 15 0 8 -7 15 -15
15 -8 0 -21 4 -29 9 -11 7 -9 13 10 28 l24 19 -33 -16 c-24 -12 -32 -12 -30
-3 2 8 -5 12 -15 10 -10 -2 -30 6 -46 18 -16 11 -38 20 -49 20 -32 0 -74 19
-67 30 3 5 2 10 -4 10 -5 0 -13 -4 -16 -10 -3 -5 -24 -10 -45 -10 -21 0 -42 5
-45 10 -8 13 -35 13 -35 0z m195 -152 c11 -6 31 -20 45 -32 20 -17 22 -18 10
-2 -14 18 -14 19 8 7 12 -7 20 -17 16 -23 -4 -6 -3 -8 4 -4 6 3 22 -5 36 -19
13 -13 21 -27 16 -30 -5 -3 -8 -14 -7 -25 1 -10 5 -17 9 -14 4 3 5 11 2 19 -4
9 1 13 14 12 12 0 20 -6 19 -12 -1 -5 4 -9 11 -7 10 2 10 -2 3 -17 -8 -15 -7
-20 6 -25 9 -4 14 -9 11 -11 -3 -3 -22 2 -42 10 -25 11 -35 12 -30 4 5 -9 0
-10 -22 -4 -36 11 -134 13 -154 4 -92 -42 -142 -68 -143 -75 -1 -5 -5 -8 -8
-7 -4 1 -10 -9 -13 -22 -4 -14 -11 -25 -17 -25 -8 0 -8 -4 0 -14 9 -11 6 -13
-14 -13 -16 0 -25 5 -25 16 0 14 -2 14 -10 1 -5 -8 -10 -10 -10 -4 0 6 -20 17
-45 24 -25 7 -45 16 -45 19 0 4 -23 14 -52 21 -34 10 -53 21 -56 33 -4 15 -7
16 -13 5 -7 -10 -9 -9 -9 5 0 10 -3 16 -8 13 -4 -2 -16 2 -27 10 -10 8 -14 14
-8 14 7 0 15 -5 18 -11 5 -6 16 -4 32 7 24 15 26 15 20 0 -4 -11 -3 -15 4 -11
5 4 7 16 3 27 -5 16 -3 20 9 15 12 -4 14 -2 10 10 -5 12 -3 14 7 8 10 -6 12
-4 7 9 -4 9 -3 15 1 12 5 -3 19 5 33 17 75 70 202 110 314 101 39 -4 79 -11
90 -16z m-563 -334 c-22 -10 -29 -9 -39 5 -10 13 -9 18 4 28 12 10 20 9 39 -5
l23 -17 -27 -11z m62 -19 c14 -11 16 -15 5 -15 -8 -1 11 -10 41 -20 30 -11 57
-25 58 -30 2 -6 10 -10 18 -10 8 0 14 -5 14 -11 0 -6 -9 -8 -22 -3 -13 4 -30
8 -38 9 -33 3 -60 17 -54 27 4 6 -2 8 -17 3 -19 -5 -21 -4 -9 4 8 6 13 11 10
12 -43 7 -55 10 -59 15 -3 3 4 4 16 2 12 -1 21 1 20 7 -1 5 -12 9 -24 9 -12
-1 -20 3 -17 7 8 13 37 10 58 -6z"/>
<path d="M500 1419 c-8 -15 -9 -19 -1 -15 15 10 14 -7 -1 -23 -11 -10 -10 -11
5 -6 13 6 21 -2 34 -31 9 -22 17 -43 18 -49 0 -5 7 -9 14 -7 8 2 11 -3 8 -12
-3 -8 1 -22 8 -33 8 -10 15 -13 15 -7 0 5 -4 15 -10 22 -5 7 -2 6 7 -2 13 -12
14 -18 4 -30 -10 -11 -2 -23 44 -63 31 -26 65 -64 75 -85 19 -36 134 -158 147
-157 4 0 9 -5 11 -13 2 -8 0 -9 -5 -3 -14 18 -32 15 -43 -5 -15 -28 -24 -25
-77 23 -58 53 -113 136 -142 216 -12 33 -26 61 -30 61 -4 0 -7 -18 -7 -39 1
-21 4 -37 9 -34 4 2 7 -5 7 -16 0 -11 5 -23 11 -26 6 -4 8 -14 5 -22 -3 -8 -2
-12 3 -9 4 3 22 -23 40 -57 18 -34 30 -54 27 -44 -3 9 -1 17 3 17 12 0 23 -29
16 -41 -4 -5 1 -6 10 -3 11 5 14 2 9 -10 -4 -9 -1 -16 6 -16 7 0 26 -10 42
-22 24 -17 34 -19 48 -10 14 9 20 8 24 -5 4 -9 2 -21 -4 -27 -8 -8 -9 -5 -4 9
5 14 4 17 -3 10 -15 -14 -26 -55 -15 -55 35 0 143 178 146 240 1 29 -3 32 -65
54 -156 55 -283 158 -343 277 -32 65 -36 68 -46 48z m304 -310 c14 -7 23 -16
20 -20 -3 -5 9 -9 26 -9 17 0 29 -4 25 -9 -3 -5 5 -11 17 -13 23 -4 25 -8 13
-43 -5 -15 -4 -16 3 -6 8 11 10 8 9 -11 -1 -17 -7 -24 -16 -20 -9 4 -12 -1 -7
-14 5 -16 1 -20 -18 -20 -14 0 -23 4 -20 8 3 4 -11 22 -31 39 -27 24 -34 37
-29 53 6 21 6 21 -10 1 -16 -20 -16 -20 -9 0 3 11 2 17 -2 13 -5 -5 -15 1 -22
12 -12 17 -12 24 -3 35 15 18 22 18 54 4z"/>
<path d="M875 691 c6 -11 2 -13 -19 -9 -15 3 -25 3 -22 1 2 -3 -3 -13 -12 -23
-19 -23 -25 -138 -8 -155 6 -7 23 -15 38 -18 14 -4 33 -10 42 -13 12 -5 15 -2
10 10 -4 10 -18 16 -39 16 l-33 0 -4 69 -3 69 42 4 c36 3 43 0 45 -17 4 -30
33 -31 33 -1 0 13 -3 22 -8 19 -4 -2 -21 11 -38 29 -18 18 -28 27 -24 19z"/>
<path d="M490 658 c-21 -17 -25 -28 -25 -82 0 -48 4 -67 19 -81 15 -15 22 -16
37 -7 10 7 26 12 35 12 10 0 14 6 9 19 -4 12 0 21 11 25 12 5 15 14 10 37 -3
16 -2 28 2 25 14 -9 6 34 -9 48 -26 24 -62 26 -89 4z m87 -30 c-2 -8 -15 -12
-30 -10 -22 3 -27 -1 -27 -18 0 -19 4 -21 25 -16 20 5 25 3 25 -12 0 -15 -5
-18 -26 -14 -23 4 -25 2 -22 -24 2 -20 -2 -29 -14 -32 -16 -3 -18 5 -18 67 l0
71 46 0 c32 0 44 -4 41 -12z"/>
<path d="M988 665 c-29 -16 -31 -22 -29 -65 3 -61 -2 -90 -16 -90 -20 0 -35
36 -19 49 7 6 16 8 20 4 4 -4 4 0 1 9 -4 9 -22 24 -40 32 -41 20 -45 20 -45 1
0 -9 9 -15 25 -15 16 0 25 -6 25 -15 0 -9 -9 -15 -25 -15 -16 0 -25 -6 -25
-15 0 -9 9 -15 25 -15 18 0 25 -5 25 -20 0 -21 16 -26 40 -10 16 10 43 -6 34
-21 -3 -5 9 -7 25 -5 17 2 31 0 31 -5 0 -5 7 -6 15 -3 8 4 15 1 15 -7 0 -7 3
-9 6 -6 4 4 1 13 -6 22 -8 9 -8 15 -2 15 6 0 14 -4 17 -10 3 -5 12 -10 18 -10
7 0 4 5 -6 11 -15 9 -16 13 -6 26 10 12 10 16 -2 24 -12 7 -12 9 1 9 12 0 12
2 2 9 -11 6 -10 10 5 15 17 7 17 8 -1 22 -16 11 -17 14 -4 14 19 0 41 -24 31
-34 -15 -14 -14 -56 2 -62 8 -3 12 -10 9 -15 -3 -5 2 -9 12 -9 13 0 14 -3 5
-13 -8 -10 -7 -14 4 -14 7 0 13 5 12 11 -1 7 12 10 33 8 27 -1 32 0 20 9 -12
8 -10 9 8 4 13 -4 22 -2 22 5 0 6 11 16 25 22 19 9 23 16 19 35 -9 33 1 29 24
-11 15 -25 17 -36 9 -40 -7 -3 -1 -3 12 0 16 4 21 3 17 -5 -4 -6 -1 -11 6 -12
51 -4 64 -3 68 6 3 6 -10 11 -27 13 -36 4 -73 42 -73 76 0 31 25 63 56 70 61
16 105 -61 66 -114 -11 -15 -17 -31 -12 -36 4 -5 10 -18 13 -29 5 -15 5 -14 4
5 0 14 7 39 16 56 9 17 13 34 10 38 -4 3 -1 6 5 6 7 0 12 -9 12 -21 0 -11 4
-17 11 -14 7 5 5 14 -5 30 -11 17 -12 25 -3 34 9 9 6 13 -11 18 -15 3 -21 11
-18 20 3 8 2 12 -3 9 -5 -3 -14 1 -21 9 -20 24 -84 19 -104 -7 -9 -13 -14 -17
-11 -10 4 7 0 12 -8 12 -10 0 -13 -7 -10 -20 3 -11 0 -20 -6 -20 -5 0 -9 -6
-7 -12 1 -7 1 -9 -2 -4 -2 4 -9 2 -14 -5 -7 -10 -8 -8 -3 7 7 28 -41 71 -91
80 -29 5 -40 2 -60 -17 -13 -13 -22 -29 -20 -36 3 -7 0 -13 -5 -13 -6 0 -9 9
-6 20 3 12 1 17 -5 14 -5 -3 -15 1 -21 9 -18 24 -58 29 -89 12z m82 -38 c0
-14 -5 -16 -25 -11 -19 5 -25 2 -25 -10 0 -10 9 -16 25 -16 16 0 25 -6 25 -15
0 -9 -9 -15 -25 -15 -16 0 -25 -6 -25 -15 0 -9 9 -15 25 -15 16 0 25 -6 25
-15 0 -11 -11 -15 -40 -15 l-40 0 0 73 0 72 40 0 c32 0 40 -4 40 -18z m172 -4
c10 -9 18 -30 18 -49 0 -41 -40 -76 -83 -72 -29 3 -29 4 -31 71 l-1 67 39 0
c23 0 47 -7 58 -17z"/>
<path d="M1180 575 c0 -30 4 -45 13 -45 37 0 51 62 18 80 -30 15 -31 14 -31
-35z"/>
<path d="M648 657 c-7 -8 -20 -12 -28 -10 -13 4 -13 3 0 -6 9 -7 11 -14 5 -18
-16 -13 -15 -45 1 -39 8 3 14 1 14 -4 0 -6 -6 -10 -12 -10 -9 0 -8 -4 2 -10
13 -8 13 -10 -2 -10 -9 0 -19 6 -21 13 -4 8 -6 7 -6 -3 -1 -8 8 -21 19 -28 12
-7 18 -17 15 -22 -5 -9 12 -24 30 -25 6 -1 19 6 29 14 11 9 16 11 12 3 -5 -8
-3 -11 6 -10 7 2 12 -3 10 -10 -2 -9 4 -9 21 3 13 8 26 13 29 10 2 -3 4 12 3
32 -1 24 5 42 14 50 14 10 14 11 -3 10 -10 -1 -21 4 -24 12 -3 9 0 11 9 6 8
-5 3 4 -10 18 -14 15 -20 27 -15 28 14 2 -39 17 -63 18 -12 1 -28 -5 -35 -12z
m63 -17 c23 0 30 -5 35 -27 5 -18 2 -30 -9 -37 -14 -11 -13 -14 4 -36 23 -30
24 -40 4 -40 -9 0 -24 13 -33 30 -22 38 -32 38 -32 0 0 -20 -5 -30 -15 -30
-12 0 -15 15 -15 76 0 65 2 75 16 70 9 -3 29 -6 45 -6z"/>
<path d="M680 600 c0 -19 20 -27 33 -13 8 7 -11 33 -24 33 -5 0 -9 -9 -9 -20z"/>
<path d="M1536 655 c-19 -14 -18 -15 13 -15 21 0 31 4 29 12 -6 18 -21 19 -42
3z"/>
<path d="M1642 654 c-13 -9 -29 -13 -37 -10 -18 7 -18 4 -2 -59 l14 -50 17 53
c14 41 22 52 39 52 21 0 22 -5 21 -67 -1 -57 -4 -69 -19 -72 -16 -3 -17 2 -12
48 3 28 4 51 2 51 -2 0 -11 -21 -18 -47 -16 -56 -43 -69 -53 -26 -15 72 -22
79 -23 26 -1 -30 -6 -54 -13 -57 -7 -3 -1 -4 14 -1 15 3 29 1 33 -5 3 -5 13
-6 21 -3 9 3 30 6 48 7 l31 1 3 69 c2 53 -1 72 -14 87 -21 23 -24 23 -52 3z"/>
<path d="M1510 621 c0 -6 4 -12 8 -15 5 -3 8 -27 7 -53 -3 -63 9 -80 15 -23 7
61 1 100 -16 100 -8 0 -14 -4 -14 -9z"/>
<path d="M1374 607 c-3 -9 -4 -28 -2 -44 2 -22 8 -28 28 -28 23 0 25 4 25 40
0 34 -3 40 -23 43 -13 2 -24 -3 -28 -11z"/>
<path d="M850 453 c0 -6 5 -15 10 -18 15 -10 12 -25 -4 -19 -11 4 -13 0 -9
-15 3 -12 6 -21 7 -21 1 0 13 14 25 31 13 18 18 29 12 24 -7 -4 -18 1 -26 11
-8 11 -15 14 -15 7z"/>
<path d="M1310 446 c0 -7 -7 -17 -16 -20 -10 -4 -14 -14 -11 -26 3 -11 0 -20
-5 -20 -6 0 -8 12 -5 28 5 24 2 28 -16 27 -30 0 -49 -14 -43 -30 2 -7 0 -17
-6 -23 -6 -6 -6 -12 3 -17 8 -6 10 -4 4 5 -5 9 -1 11 16 6 13 -3 18 -3 11 0
-6 3 -10 10 -6 15 3 5 0 9 -6 9 -6 0 -8 5 -5 10 3 6 13 10 21 10 8 0 13 -4 10
-8 -2 -4 -1 -14 4 -22 5 -9 4 -20 -3 -29 -9 -12 -6 -12 15 2 31 19 42 22 33 7
-4 -6 5 -7 23 -4 18 4 32 1 37 -5 5 -9 10 -9 21 0 7 6 20 9 27 6 8 -3 14 1 14
8 0 10 -11 13 -40 8 -32 -4 -38 -2 -31 8 7 12 5 12 -9 0 -19 -15 -51 -7 -45
12 5 14 88 20 88 6 0 -5 5 -9 10 -9 6 0 10 6 10 14 0 18 -40 32 -49 17 -5 -7
-14 -4 -29 9 -16 15 -22 17 -22 6z"/>
<path d="M974 437 c-8 -4 -18 -6 -23 -3 -5 4 -17 3 -28 -1 -16 -6 -15 -8 7
-13 34 -8 36 -44 4 -46 -13 -1 -22 1 -20 5 7 11 -12 36 -21 28 -4 -5 -1 -12 7
-17 11 -7 12 -10 2 -10 -7 0 -10 -4 -7 -10 3 -5 25 -8 48 -6 24 2 45 -1 49 -8
5 -7 8 -6 8 4 1 9 6 5 15 -10 8 -14 14 -19 15 -12 0 17 -39 54 -50 47 -6 -4
-10 3 -10 14 0 23 15 28 23 9 4 -10 6 -10 6 0 2 23 19 12 24 -17 5 -24 10 -28
27 -24 15 4 19 2 14 -10 -3 -8 -1 -18 5 -22 7 -4 8 1 4 12 -3 10 -3 15 2 11 4
-4 14 -3 22 3 10 9 13 8 13 -2 0 -12 2 -12 9 0 11 16 34 5 25 -12 -4 -7 7 1
24 17 18 17 32 35 32 40 0 6 -7 3 -14 -7 -12 -16 -14 -16 -20 -1 -8 20 -8 24
2 23 4 -1 14 -1 22 0 13 1 13 2 0 11 -9 5 -19 5 -27 -2 -10 -8 -13 -7 -13 3 0
11 -2 11 -10 -1 -6 -9 -10 -10 -10 -3 0 8 -12 11 -35 8 -19 -3 -35 -2 -35 3 0
10 -68 9 -86 -1z m121 -38 c4 -12 2 -26 -5 -33 -10 -8 -12 -7 -7 6 4 12 2 15
-8 12 -10 -4 -12 0 -8 15 7 27 20 27 28 0z"/>
<path d="M753 432 c-5 -4 -9 -18 -8 -32 1 -14 -2 -30 -6 -36 -5 -7 -3 -11 6
-11 8 0 15 5 15 10 0 5 6 7 14 4 20 -8 44 39 28 55 -9 9 -12 6 -12 -15 0 -31
-25 -37 -33 -8 -3 13 1 21 12 23 9 2 12 6 6 10 -6 4 -16 4 -22 0z"/>
</g>
</svg>
