<?xml version="1.0" standalone="no"?>
<!DOCTYPE svg PUBLIC "-//W3C//DTD SVG 20010904//EN"
 "http://www.w3.org/TR/2001/REC-SVG-20010904/DTD/svg10.dtd">
<svg version="1.0" xmlns="http://www.w3.org/2000/svg"
 width="225.000000pt" height="225.000000pt" viewBox="0 0 225.000000 225.000000"
 preserveAspectRatio="xMidYMid meet">
<metadata>
Created by potrace 1.10, written by Peter Selinger 2001-2011
</metadata>
<g transform="translate(0.000000,225.000000) scale(0.100000,-0.100000)"
fill="#000000" stroke="none">
<path d="M1495 1783 c-97 -12 -232 -68 -304 -127 -40 -33 -175 -167 -205 -205
-16 -21 -30 -30 -34 -24 -4 6 -37 27 -75 48 -48 27 -84 38 -127 42 -59 6 -61
5 -96 -32 -19 -21 -38 -50 -41 -66 -3 -15 -16 -38 -29 -50 -13 -12 -24 -34
-24 -47 l0 -25 23 21 c28 26 68 28 89 5 9 -10 30 -46 47 -80 44 -88 81 -126
153 -157 139 -60 164 -71 196 -89 17 -11 32 -22 32 -25 0 -29 -131 -169 -185
-198 -19 -10 -35 -22 -35 -27 0 -4 3 -6 8 -4 4 3 39 17 77 32 98 39 136 66
124 88 -6 9 -6 17 -2 17 5 0 17 13 26 30 14 23 16 34 7 51 -7 11 -9 23 -6 27
3 3 6 0 6 -6 0 -7 8 -12 17 -12 13 0 11 6 -10 28 -24 25 -25 28 -9 40 9 7 2 5
-17 -4 -18 -8 -30 -11 -27 -5 4 6 3 11 -3 11 -6 0 -9 12 -7 28 2 15 1 18 -2 7
-4 -20 -4 -20 -13 0 -7 18 -8 18 -8 -4 -1 -24 -1 -24 -16 -5 -14 18 -14 18
-16 -6 -1 -17 -3 -20 -6 -7 -2 9 -11 17 -19 17 -8 0 -14 4 -14 10 0 13 -65 29
-90 23 -33 -9 -23 5 20 27 23 12 38 25 35 30 -10 16 -26 12 -45 -12 -18 -22
-20 -22 -47 -6 -15 9 -27 24 -25 31 1 8 -7 17 -19 20 -14 4 -18 10 -13 19 6
11 5 11 -8 0 -12 -10 -18 -10 -23 -1 -4 6 -1 15 6 20 10 6 11 9 2 9 -7 0 -13
7 -13 15 0 8 -5 15 -12 15 -6 0 -9 3 -5 6 3 4 -4 15 -16 26 -12 11 -17 17 -11
14 8 -4 11 3 10 19 -1 22 -3 23 -13 10 -10 -14 -13 -14 -25 4 -8 12 -18 18
-21 14 -4 -3 -7 -2 -7 4 0 14 68 7 128 -12 23 -8 42 -10 42 -5 0 12 -100 40
-142 40 -18 0 -43 -7 -56 -15 -18 -14 -21 -14 -16 -1 3 8 12 17 20 20 9 3 12
11 9 16 -4 6 3 20 16 31 12 10 19 19 15 19 -4 0 -1 6 6 13 24 23 187 10 172
-14 -3 -5 6 -9 19 -9 13 0 32 -9 42 -20 10 -11 22 -17 27 -13 11 6 28 -14 28
-32 0 -5 -4 -4 -8 2 -6 9 -18 3 -42 -22 l-34 -35 23 -23 23 -22 -13 22 c-12
20 -11 25 11 48 17 18 26 22 31 13 5 -8 10 -2 15 16 5 21 9 25 16 14 6 -9 8
-8 6 7 -2 11 2 19 7 18 6 0 16 5 23 13 7 8 10 14 7 14 -4 0 0 6 7 14 7 8 21
25 32 40 10 14 24 23 30 19 6 -3 8 -3 4 2 -11 11 12 36 25 28 6 -4 8 0 4 11
-5 12 -2 16 11 14 9 -2 16 3 15 10 -2 6 4 12 13 12 8 0 13 4 10 9 -3 5 2 8 11
7 9 0 18 6 20 14 4 13 3 13 -7 0 -10 -13 -11 -13 -7 0 2 8 11 14 20 14 9 -1
14 2 11 7 -3 5 -2 9 3 10 4 0 18 2 29 5 20 3 21 1 10 -21 -6 -14 -18 -25 -26
-25 -19 0 -113 -94 -104 -103 4 -4 23 11 42 33 18 22 39 40 45 39 21 -3 47 13
40 24 -4 6 0 8 10 4 11 -4 17 -1 17 9 0 9 -5 12 -12 8 -7 -4 -8 -3 -4 4 4 7
12 12 18 12 15 0 80 41 74 47 -2 3 -21 -3 -41 -13 -30 -14 -38 -15 -45 -4 -6
10 7 21 47 42 52 27 73 29 73 7 0 -6 -9 -8 -19 -4 -23 7 -38 -10 -16 -19 8 -3
36 6 62 19 27 14 81 31 121 39 40 8 76 17 79 20 7 6 -79 6 -132 -1z"/>
<path d="M1450 1720 l-25 -10 27 4 c36 4 121 -18 126 -32 2 -8 -8 -12 -27 -12
-17 0 -31 -4 -31 -9 0 -5 49 -8 109 -7 60 0 107 4 105 7 -2 4 -34 19 -71 34
-73 29 -171 41 -213 25z"/>
<path d="M1493 1627 c15 -6 27 -14 27 -18 0 -5 16 -11 34 -15 27 -5 32 -9 23
-18 -6 -7 -21 -11 -32 -9 -44 9 17 -19 69 -32 28 -7 59 -16 69 -20 9 -4 17 -3
17 1 -1 15 -116 93 -160 109 -49 17 -90 19 -47 2z"/>
<path d="M1529 1526 c13 -14 32 -28 43 -32 10 -3 18 -12 18 -19 0 -9 6 -12 17
-8 12 5 11 1 -5 -15 -23 -23 -38 -29 -27 -12 4 6 -8 10 -29 10 -55 0 -43 -15
27 -34 34 -10 82 -26 106 -37 24 -10 46 -18 48 -16 10 11 -122 137 -169 161
l-53 28 24 -26z"/>
<path d="M1097 1476 c-16 -20 -26 -36 -23 -36 11 0 57 53 54 62 -2 6 -16 -6
-31 -26z"/>
<path d="M1407 1443 c12 -2 27 -11 33 -19 16 -18 27 -18 27 1 0 9 -6 14 -14
11 -7 -3 -13 -1 -13 4 0 6 -12 9 -27 9 -23 -1 -24 -2 -6 -6z"/>
<path d="M1474 1406 c0 -14 5 -22 11 -19 7 2 17 -2 23 -10 10 -12 -1 -14 -73
-12 -70 2 -83 0 -74 -11 6 -7 8 -18 5 -23 -4 -5 -1 -13 5 -17 8 -5 9 -3 4 6
-6 9 -4 11 4 5 9 -5 10 -10 2 -18 -7 -7 -4 -14 12 -22 12 -6 21 -18 19 -25 -2
-7 3 -17 10 -21 11 -7 11 -9 0 -9 -7 0 -10 -4 -7 -10 3 -6 -1 -7 -10 -3 -12 4
-13 8 -5 13 9 5 9 9 1 14 -6 4 -11 4 -11 -1 -1 -4 -9 8 -20 27 -11 19 -19 29
-20 23 0 -7 -5 -13 -11 -13 -5 0 -7 5 -4 10 3 6 -1 10 -9 10 -8 0 -22 7 -30
16 -10 9 -16 11 -16 4 0 -12 10 -22 125 -132 33 -31 66 -64 73 -75 11 -15 12
-13 7 22 -8 53 -60 163 -92 198 -15 15 -24 27 -21 27 14 0 196 -88 238 -115
52 -33 67 -38 67 -20 0 7 -6 12 -13 11 -6 0 -27 22 -46 49 -19 28 -39 49 -46
48 -6 -2 -9 3 -6 11 5 12 -69 86 -86 86 -3 0 -6 -11 -6 -24z"/>
<path d="M1123 1408 c-19 -25 -24 -38 -14 -38 6 0 11 7 11 16 0 14 9 16 52 12
47 -5 49 -4 27 8 -31 17 -64 18 -76 2z"/>
<path d="M1197 1344 c-3 -3 8 -18 24 -32 27 -22 29 -26 14 -34 -15 -9 -15 -12
0 -34 8 -13 11 -24 6 -24 -5 0 -13 9 -16 20 -4 11 -11 17 -17 14 -8 -5 -9 -1
-5 10 4 10 3 15 -3 11 -6 -3 -10 -1 -10 6 0 7 -3 9 -6 6 -4 -4 2 -19 12 -34
29 -44 87 -155 100 -193 l13 -35 2 55 c5 132 -11 191 -60 228 -20 15 -39 30
-42 35 -3 4 -8 4 -12 1z m73 -104 c8 -21 10 -38 3 -51 -8 -19 -10 -20 -22 -5
-12 14 -12 16 2 10 12 -4 15 1 12 22 -1 16 -8 30 -14 32 -13 4 -15 22 -2 22 5
0 14 -14 21 -30z"/>
<path d="M830 1285 c-7 -8 -19 -15 -26 -15 -8 0 -14 -10 -14 -22 l0 -22 16 22
c9 13 25 27 37 31 12 5 16 10 10 14 -6 4 -16 0 -23 -8z"/>
<path d="M1198 1198 c4 -17 2 -20 -11 -15 -10 4 -17 2 -17 -3 0 -6 5 -10 11
-10 6 0 9 -8 7 -18 -3 -10 1 -23 9 -30 7 -7 13 -23 13 -35 0 -16 3 -18 9 -9 5
9 9 -7 9 -43 0 -31 5 -62 11 -69 6 -7 11 -24 11 -37 -1 -48 -12 -129 -18 -129
-4 0 -8 34 -9 76 0 42 -6 81 -12 87 -6 6 -11 19 -11 28 0 9 -19 45 -42 80 -31
46 -44 59 -46 45 -2 -10 7 -30 20 -44 35 -39 72 -116 65 -136 -7 -18 -5 -32 4
-29 9 3 20 -57 13 -69 -3 -5 -6 -35 -5 -67 0 -38 -6 -70 -18 -94 -10 -21 -16
-39 -12 -41 13 -9 72 133 83 199 14 81 -2 214 -33 284 -10 24 -19 54 -19 67 0
12 -4 25 -9 28 -5 4 -7 -4 -3 -16z"/>
<path d="M1031 1153 c-1 -24 4 -43 9 -43 12 0 12 37 0 65 -7 15 -9 10 -9 -22z"/>
<path d="M1097 827 c-10 -12 -38 -50 -63 -85 -25 -34 -58 -69 -73 -77 -14 -8
-21 -14 -14 -15 14 0 155 94 178 120 19 21 13 40 -12 40 -13 0 -13 3 -3 15 7
9 11 17 9 20 -3 2 -12 -6 -22 -18z"/>
<path d="M1133 818 c2 -7 10 -12 17 -10 17 4 4 -50 -30 -123 -16 -33 -27 -61
-26 -63 5 -4 87 99 98 124 8 17 5 28 -13 53 -22 30 -55 43 -46 19z"/>
<path d="M510 460 l0 -60 45 0 c25 0 45 5 45 10 0 6 -16 10 -36 10 l-37 0 7
50 c6 41 4 50 -9 50 -12 0 -15 -13 -15 -60z"/>
<path d="M634 512 c-59 -39 -16 -137 50 -112 67 25 50 120 -21 120 -10 0 -23
-4 -29 -8z m66 -32 c16 -31 -4 -62 -38 -58 -28 3 -40 32 -28 64 8 21 54 17 66
-6z"/>
<path d="M745 460 c0 -42 4 -60 12 -60 7 0 13 9 13 20 0 11 4 20 8 20 5 0 17
-9 27 -20 10 -11 25 -20 33 -20 12 0 11 4 -4 21 -14 16 -15 23 -6 26 15 6 16
45 0 61 -7 7 -28 12 -48 12 l-35 0 0 -60z m73 18 c3 -14 -3 -18 -27 -18 -34 0
-34 0 -25 25 8 21 48 16 52 -7z"/>
<path d="M860 460 l0 -60 45 0 c25 0 45 5 45 10 0 6 -16 10 -35 10 -24 0 -35
5 -35 15 0 10 11 15 35 15 19 0 35 5 35 10 0 6 -16 10 -35 10 -24 0 -35 5 -35
15 0 10 11 15 35 15 19 0 35 5 35 10 0 6 -20 10 -45 10 l-45 0 0 -60z"/>
<path d="M970 460 c0 -33 4 -60 10 -60 6 0 10 19 10 43 l0 42 20 -25 20 -25
20 24 20 23 0 -41 c0 -26 5 -41 13 -41 8 0 11 17 9 60 -4 65 -13 73 -38 35 -9
-14 -20 -25 -23 -25 -4 0 -14 11 -21 25 -24 45 -40 31 -40 -35z"/>
<path d="M1153 455 c0 -38 2 -53 4 -32 2 20 2 52 0 70 -2 17 -4 1 -4 -38z"/>
<path d="M1191 453 c1 -38 4 -56 6 -41 4 23 10 27 41 30 30 2 38 7 40 26 5 33
-15 52 -54 52 l-34 0 1 -67z m67 48 c25 -16 9 -46 -26 -49 -30 -3 -32 -1 -32
27 0 26 4 31 23 31 12 0 28 -4 35 -9z"/>
<path d="M1301 501 c-12 -22 2 -38 46 -50 15 -4 28 -14 28 -22 0 -18 -51 -24
-71 -8 -10 8 -14 8 -14 0 0 -19 51 -34 78 -21 38 17 26 53 -21 64 -48 12 -48
41 0 41 17 0 29 3 26 7 -9 16 -62 8 -72 -11z"/>
<path d="M1412 475 c-2 -61 7 -77 43 -77 36 0 45 16 43 77 l-1 50 -6 -55 c-6
-53 -7 -55 -36 -55 -29 0 -30 2 -36 55 l-6 55 -1 -50z"/>
<path d="M1529 520 c-1 -3 -2 -30 -3 -60 -4 -77 8 -88 15 -15 3 33 2 64 -3 70
-4 5 -8 7 -9 5z"/>
<path d="M1606 484 c-24 -35 -24 -36 -36 -14 -6 12 -14 19 -17 17 -2 -3 3 -17
13 -32 l17 -26 21 33 21 33 6 -55 6 -55 1 68 c1 37 0 67 -3 67 -2 0 -15 -16
-29 -36z"/>
</g>
</svg>
