<?xml version="1.0" standalone="no"?>
<!DOCTYPE svg PUBLIC "-//W3C//DTD SVG 20010904//EN"
 "http://www.w3.org/TR/2001/REC-SVG-20010904/DTD/svg10.dtd">
<svg version="1.0" xmlns="http://www.w3.org/2000/svg"
 width="300.000000pt" height="267.000000pt" viewBox="0 0 300.000000 267.000000"
 preserveAspectRatio="xMidYMid meet">
<metadata>
Created by potrace 1.10, written by Peter Selinger 2001-2011
</metadata>
<g transform="translate(0.000000,267.000000) scale(0.100000,-0.100000)"
fill="#000000" stroke="none">
<path d="M1570 2275 c0 -14 4 -25 9 -25 5 0 5 -17 -1 -39 -9 -34 -6 -46 18
-95 15 -31 33 -56 41 -56 23 0 14 -36 -18 -69 -21 -22 -34 -30 -41 -23 -13 13
0 54 14 46 7 -4 8 -2 4 5 -10 16 -64 -16 -81 -49 -7 -14 -22 -33 -33 -44 -20
-18 -21 -18 -46 7 -14 14 -28 38 -32 54 -12 49 -44 74 -44 33 0 -24 -22 -26
-40 -5 -18 22 -32 18 -29 -7 2 -13 -1 -33 -5 -46 -5 -16 -1 -31 15 -53 20 -29
21 -35 11 -97 -9 -51 -17 -72 -37 -89 -15 -13 -25 -33 -25 -48 0 -14 -7 -42
-15 -63 -16 -37 -13 -82 5 -82 14 0 12 -32 -3 -50 -7 -8 -32 -30 -57 -49 -52
-39 -98 -106 -112 -162 -6 -21 -14 -39 -19 -39 -14 0 -11 13 16 87 13 37 22
69 20 71 -5 6 -55 -103 -55 -121 0 -9 -4 -19 -10 -22 -9 -5 -110 9 -152 21
-19 6 -24 39 -8 49 17 11 12 21 -35 68 -65 66 -66 81 -12 187 25 50 44 90 43
90 -6 0 -66 -102 -85 -145 -22 -49 -20 -63 13 -110 61 -86 64 -134 16 -250
-21 -49 -48 -119 -60 -155 -35 -101 -62 -157 -131 -276 -139 -240 -152 -268
-132 -288 4 -4 6 -40 4 -80 -3 -76 7 -98 30 -69 10 11 13 38 11 84 -2 63 0 70
23 85 26 17 165 279 170 319 1 13 16 38 33 56 19 21 30 41 26 51 -2 9 0 19 5
23 7 4 8 -1 4 -11 -4 -12 -3 -15 5 -10 6 4 16 26 23 49 6 23 26 69 44 102 40
70 137 181 151 172 7 -4 6 -48 -3 -129 -20 -195 -30 -243 -55 -284 -34 -55
-78 -161 -78 -188 0 -20 11 -27 72 -49 41 -15 77 -22 82 -17 14 14 -2 27 -49
39 l-46 11 7 38 c4 20 24 79 45 131 22 51 39 103 39 116 0 29 33 125 67 191
19 37 32 53 43 50 8 -3 29 -7 46 -11 29 -6 30 -4 26 23 -3 25 -7 28 -34 24
-28 -4 -30 -2 -25 17 3 11 1 24 -4 27 -5 3 -9 -4 -9 -16 0 -23 -24 -53 -34
-43 -8 8 -37 -17 -31 -27 6 -10 -5 -40 -15 -40 -18 0 -17 29 1 48 10 12 19 29
18 39 0 16 -1 16 -9 -2 -8 -18 -9 -17 -9 8 -1 15 4 27 9 27 6 0 10 12 10 28 0
15 11 44 25 64 14 20 25 42 25 49 0 17 40 51 83 71 20 10 37 22 37 28 0 5 11
10 25 10 32 0 33 18 1 22 -22 3 -23 5 -11 22 12 16 17 17 30 6 13 -10 18 -11
28 -1 9 10 9 12 -3 9 -10 -2 -15 5 -15 20 0 13 -9 28 -20 34 -11 6 -21 12 -23
13 -8 7 11 74 19 69 5 -3 10 6 10 20 2 42 3 46 15 54 6 4 14 16 18 27 6 16 9
17 16 5 6 -10 9 7 7 48 -1 46 3 66 13 72 14 9 7 14 -14 11 -5 -1 -6 9 -4 23 3
14 1 23 -3 20 -8 -5 -29 27 -29 45 0 6 5 11 10 11 6 0 10 -10 10 -22 0 -21 2
-20 16 7 8 16 17 31 19 34 6 6 35 -20 35 -31 0 -6 -8 -4 -17 3 -14 12 -16 12
-11 -1 2 -8 11 -36 19 -62 10 -37 18 -48 34 -49 17 0 18 -2 4 -11 -14 -10 -14
-14 -2 -39 8 -16 18 -29 23 -29 4 0 6 -8 3 -19 -3 -11 3 -24 15 -32 23 -17 26
-50 4 -41 -11 4 -13 1 -7 -9 24 -42 47 -69 55 -64 5 3 15 -1 23 -9 8 -8 19
-11 27 -6 10 6 1 24 -37 72 -27 34 -50 74 -51 87 0 13 2 21 5 18 7 -7 33 18
33 31 0 16 -33 24 -42 10 -4 -7 -8 -16 -8 -20 0 -5 -4 -8 -10 -8 -5 0 -10 11
-10 25 0 48 -24 104 -45 108 -19 3 -19 4 -1 12 15 6 23 3 34 -13 18 -28 39
-28 63 1 18 21 18 21 19 2 0 -11 -7 -33 -15 -49 -14 -26 -14 -30 2 -41 14 -10
23 -6 57 29 23 23 40 44 39 47 -1 3 10 18 24 35 34 39 57 74 59 90 1 8 -16 32
-38 54 -26 25 -35 40 -25 40 9 0 19 10 23 23 l8 22 8 -25 c5 -18 6 -15 1 10
-3 19 -7 49 -8 67 -3 38 -12 53 -30 53 -7 0 -15 7 -19 15 -9 24 -26 17 -26
-10z m59 -65 c0 -10 -3 -8 -9 5 -8 19 -9 19 -9 -3 -1 -13 4 -32 10 -44 13 -24
4 -37 -14 -19 -15 15 -16 72 -2 87 12 14 25 -1 24 -26z m-66 -279 c-6 -3 -13
-13 -16 -21 -4 -10 -6 -8 -6 7 -1 12 -7 24 -13 26 -8 3 -6 6 5 6 9 1 17 7 17
14 0 6 5 4 11 -7 7 -12 8 -21 2 -25z m-653 -711 c13 -8 11 -14 -12 -37 l-28
-28 0 31 c0 43 11 53 40 34z m-56 -97 c-41 -65 -47 -73 -51 -69 -3 2 5 32 18
65 19 54 23 59 35 44 10 -15 10 -22 -2 -40z m-224 -500 c-13 -21 -32 -54 -42
-73 -26 -46 -37 -59 -61 -72 -14 -7 -18 -7 -15 2 2 6 8 12 13 13 6 1 18 19 29
40 10 20 22 37 28 37 5 0 7 8 3 19 -3 11 3 28 14 42 15 17 21 20 21 9 0 -12 3
-11 11 3 5 9 12 17 15 17 4 0 -4 -17 -16 -37z"/>
<path d="M1292 2253 c-16 -16 -37 -50 -47 -76 -16 -45 -16 -50 -1 -65 15 -16
16 -14 10 18 -3 19 -2 31 3 25 10 -13 33 -18 33 -7 0 16 60 13 66 -3 8 -20 6
-22 -31 -30 -24 -5 -27 -4 -15 5 13 10 13 11 0 7 -21 -5 -24 -39 -5 -62 10
-12 15 -14 12 -5 -2 8 4 23 13 33 17 17 18 18 17 1 -1 -10 5 -20 13 -21 11 -3
15 6 15 33 0 21 6 39 13 41 8 3 12 -9 12 -41 0 -25 5 -46 10 -46 6 0 10 15 10
33 0 17 3 41 6 52 4 18 -1 20 -58 23 -34 2 -64 4 -65 6 -2 2 18 65 24 75 7 11
53 -33 54 -52 1 -17 2 -18 6 -4 2 9 8 17 13 17 21 0 -5 32 -41 51 l-39 19 -28
-27z"/>
<path d="M1666 2235 c4 -11 8 -30 8 -42 1 -11 4 -19 7 -17 11 6 17 -60 8 -78
-5 -9 -9 -25 -9 -35 1 -33 30 61 30 97 0 23 -9 45 -26 65 -18 21 -23 24 -18
10z"/>
<path d="M1483 2165 c18 -13 17 -14 -5 -17 -22 -3 -22 -4 4 -9 17 -4 25 -2 21
4 -3 5 0 7 8 5 8 -3 15 -20 15 -44 1 -21 2 -50 3 -64 2 -23 3 -23 11 -5 5 11
9 39 9 62 1 37 -3 43 -35 62 -40 24 -59 28 -31 6z"/>
<path d="M1445 2110 c4 -6 1 -18 -6 -26 -11 -13 -9 -14 13 -9 19 5 29 2 36
-12 6 -10 14 -14 18 -10 4 4 3 12 -3 18 -6 6 -9 18 -6 25 3 8 1 14 -5 14 -6 0
-13 -6 -15 -12 -3 -8 -6 -6 -6 5 -1 9 -8 17 -17 17 -8 0 -12 -5 -9 -10z"/>
<path d="M1726 2101 c-9 -10 -16 -31 -15 -47 1 -16 -2 -38 -7 -49 -8 -20 -7
-20 11 -1 15 15 20 16 23 5 3 -8 11 -22 20 -32 18 -20 20 -18 -46 -51 -56 -28
-69 -45 -57 -73 6 -16 9 -15 26 7 27 35 33 42 73 74 37 29 50 76 21 76 -8 0
-19 8 -24 18 -7 14 -5 21 10 30 24 15 32 15 26 0 -2 -7 5 -23 17 -36 11 -13
21 -37 22 -55 l2 -31 -14 24 c-9 18 -13 20 -14 8 0 -9 -3 -18 -7 -20 -9 -4
-45 -78 -38 -78 2 0 12 14 21 31 11 23 19 28 27 20 18 -18 57 26 57 65 0 36
-54 109 -72 98 -6 -4 -8 2 -3 15 8 27 -6 27 -30 1 -10 -11 -23 -20 -28 -20 -6
0 -2 9 8 20 10 11 16 20 13 20 -3 0 -12 -8 -22 -19z"/>
<path d="M1202 2098 c-7 -7 -12 -8 -12 -4 0 5 -11 -3 -25 -18 -25 -28 -32 -46
-16 -46 5 0 14 7 21 15 17 20 51 20 44 0 -4 -8 -10 -13 -14 -10 -5 3 -12 0
-16 -7 -4 -7 -4 -10 1 -6 12 11 45 -11 44 -30 0 -14 -2 -14 -7 -2 -9 20 -33
24 -26 5 4 -8 2 -15 -4 -15 -6 0 -8 -9 -5 -20 6 -24 16 -25 33 -5 7 8 16 12
21 9 5 -3 8 -2 7 3 -1 4 1 18 6 31 5 15 2 27 -8 38 -9 8 -16 29 -16 45 0 31
-9 36 -28 17z"/>
<path d="M1112 2022 c-9 -12 -11 -12 -7 -2 4 8 -1 6 -9 -4 -24 -29 -20 -41 22
-75 27 -20 42 -27 49 -20 7 7 17 -1 31 -25 12 -20 26 -36 33 -36 7 0 10 -12 7
-30 -3 -16 -1 -30 4 -30 5 0 8 -6 7 -12 -3 -25 1 -38 12 -38 7 0 9 9 3 28 -4
15 -7 44 -5 64 1 34 -3 40 -39 63 -22 14 -40 32 -40 41 0 8 -5 12 -10 9 -18
-11 -50 6 -50 26 0 10 5 19 10 19 12 0 13 27 2 34 -4 2 -14 -3 -20 -12z"/>
<path d="M1438 2034 c-4 -3 0 -13 8 -21 12 -12 20 -13 37 -4 20 10 20 11 2 8
-11 -1 -25 3 -30 11 -6 7 -14 10 -17 6z"/>
<path d="M1041 1925 c-19 -7 -35 -19 -37 -28 -2 -14 -74 -131 -107 -174 -5 -7
-6 -13 -1 -13 5 1 30 34 56 75 30 47 55 75 65 75 14 0 15 2 4 9 -11 7 -9 13 8
30 32 32 41 26 41 -29 0 -76 -18 -145 -51 -189 -16 -23 -29 -44 -29 -49 0 -18
-61 -80 -77 -78 -10 2 -13 1 -8 -1 14 -5 9 -151 -6 -169 -10 -12 -10 -17 1
-27 9 -8 11 -8 7 -1 -4 7 0 14 8 18 11 4 15 22 15 74 0 51 4 73 16 83 8 7 24
29 34 48 10 20 40 56 66 80 32 29 44 46 35 49 -7 2 -17 -2 -22 -9 -14 -22 -10
-4 4 25 8 14 18 22 23 18 4 -4 3 0 -4 9 -6 9 -9 18 -6 21 9 10 23 126 17 148
-6 22 -5 22 -52 5z"/>
<path d="M1924 1850 c21 -25 53 -56 71 -70 18 -14 59 -46 91 -71 33 -25 66
-49 74 -54 40 -23 -21 32 -107 97 -52 39 -99 78 -106 87 -7 9 -23 25 -37 36
-14 12 -8 1 14 -25z"/>
<path d="M1865 1851 c11 -13 34 -33 50 -44 l30 -21 -20 23 c-11 13 -33 33 -50
44 l-30 21 20 -23z"/>
<path d="M1112 1780 c-1 -50 2 -68 8 -54 4 11 5 45 0 75 l-8 54 0 -75z"/>
<path d="M1610 1799 c0 -31 4 -48 10 -44 13 8 13 -4 -1 -44 -12 -34 -33 -40
-48 -14 -11 21 -26 11 -18 -12 4 -8 15 -15 26 -15 11 0 23 -4 26 -10 3 -5 16
-10 29 -10 23 0 23 1 11 63 -6 34 -12 65 -13 70 -1 4 -2 21 -2 37 0 17 -4 30
-10 30 -5 0 -10 -23 -10 -51z"/>
<path d="M1727 1803 c-7 -10 43 -87 74 -114 36 -31 34 -22 -6 22 -20 23 -43
55 -50 71 -7 17 -15 26 -18 21z"/>
<path d="M992 1753 c-5 -10 -13 -34 -16 -53 -5 -30 -3 -27 14 14 19 49 21 75
2 39z"/>
<path d="M1212 1723 c-9 -21 -19 -40 -22 -43 -12 -12 -72 -171 -66 -177 3 -3
1 -12 -5 -19 -7 -9 -6 -12 7 -10 19 3 33 26 15 26 -7 0 -7 9 0 30 6 17 15 30
20 30 5 0 9 8 9 18 0 9 9 28 20 42 11 14 20 33 20 42 0 24 11 49 19 43 4 -2 8
9 8 25 0 17 -2 30 -4 30 -2 0 -11 -17 -21 -37z"/>
<path d="M1706 1712 c-4 -18 -5 -36 -2 -39 11 -12 17 5 14 39 l-3 33 -9 -33z"/>
<path d="M1375 1679 c4 -5 -1 -19 -10 -29 -16 -17 -15 -19 7 -31 21 -11 22
-11 10 4 -15 18 -8 37 14 37 8 0 14 -9 14 -19 0 -25 20 -38 31 -20 7 12 9 12
9 0 0 -8 3 -12 6 -8 10 10 -50 77 -69 77 -10 0 -15 -5 -12 -11z"/>
<path d="M2104 1657 c3 -24 18 -37 59 -56 40 -18 57 -19 57 -2 0 4 -27 22 -59
39 -32 17 -58 25 -57 19z"/>
<path d="M1636 1625 c-18 -19 -13 -37 9 -28 8 3 15 1 15 -5 0 -15 -48 -24 -70
-12 -16 8 -21 6 -31 -12 -6 -13 -8 -20 -4 -16 4 4 21 0 37 -8 27 -14 32 -14
51 3 32 27 37 36 31 58 -10 32 -20 37 -38 20z"/>
<path d="M1787 1612 c-16 -10 -25 -23 -22 -31 4 -11 3 -11 -9 -2 -8 7 -17 8
-20 3 -3 -6 3 -12 14 -15 11 -3 23 -1 26 5 3 5 15 7 27 4 15 -4 17 -2 9 6 -9
9 -8 16 5 30 20 23 7 23 -30 0z"/>
<path d="M1888 1603 c13 -24 31 -39 57 -45 11 -3 28 -9 38 -13 10 -4 17 -3 17
4 0 6 -12 14 -27 17 -16 4 -43 18 -62 32 -28 21 -32 22 -23 5z"/>
<path d="M1442 1575 c-16 -35 -16 -35 18 -35 30 0 37 11 24 44 -9 24 -29 19
-42 -9z"/>
<path d="M2015 1582 c6 -6 29 -12 52 -14 55 -5 42 7 -17 16 -29 5 -41 4 -35
-2z"/>
<path d="M2210 1575 c-16 -19 -6 -32 13 -17 7 6 18 7 25 3 15 -9 -12 -25 -78
-45 l-45 -14 48 -1 47 -1 0 -39 c0 -22 3 -46 6 -55 5 -12 0 -16 -17 -16 -21
-1 -22 -2 -6 -11 9 -6 15 -14 12 -20 -4 -5 6 -14 20 -21 14 -6 24 -17 21 -24
-5 -14 21 -40 30 -31 4 3 -3 21 -14 39 -22 36 -29 61 -39 151 -7 63 6 76 31
30 8 -16 26 -39 40 -52 14 -14 26 -35 26 -48 0 -13 5 -23 11 -23 7 0 9 9 5 24
-4 16 0 29 14 41 17 15 22 16 37 4 10 -8 23 -21 30 -29 6 -8 15 -11 20 -7 9 9
-50 63 -80 73 -25 8 -17 38 11 42 12 2 22 8 22 14 0 6 -9 7 -22 3 -44 -14 -98
-17 -98 -6 0 13 -36 51 -49 51 -5 0 -14 -7 -21 -15z"/>
<path d="M1690 1558 c0 -8 9 -23 20 -33 16 -15 20 -15 20 -3 0 8 -9 23 -20 33
-16 15 -20 15 -20 3z"/>
<path d="M1783 1528 c-6 -10 96 -9 121 1 12 4 -8 7 -48 7 -37 -1 -70 -4 -73
-8z"/>
<path d="M2063 1497 c-29 -17 -53 -35 -53 -40 0 -10 83 34 104 56 26 26 7 20
-51 -16z"/>
<path d="M1567 1506 c-65 -18 -72 -30 -14 -24 40 5 68 -4 56 -17 -6 -5 -188
-35 -224 -36 -16 -1 -42 1 -56 5 -16 5 -29 3 -33 -3 -5 -7 2 -11 16 -12 13 0
32 -2 43 -5 45 -10 97 -8 104 4 4 7 14 10 22 7 8 -3 44 3 80 15 66 20 155 27
144 11 -3 -5 -1 -12 4 -15 5 -3 9 10 9 29 0 34 -1 35 -37 35 -20 0 -42 -5 -48
-11 -8 -8 -13 -8 -17 0 -4 6 0 11 9 11 9 0 13 5 10 10 -7 12 -8 12 -68 -4z"/>
<path d="M2370 1448 c0 -4 9 -26 21 -48 21 -39 39 -52 39 -27 0 13 -59 87 -60
75z"/>
<path d="M1995 1419 c13 -6 -9 -8 -71 -6 -89 2 -90 2 -86 -20 2 -13 -1 -23 -7
-23 -6 0 -11 12 -11 26 0 20 -4 25 -16 20 -9 -3 -24 -6 -35 -6 -27 0 -24 -18
4 -22 19 -3 22 -9 22 -53 0 -39 4 -50 17 -53 11 -2 16 2 14 10 -23 73 -9 94
17 26 12 -32 47 -243 47 -283 0 -2 14 -6 30 -10 30 -7 30 -7 30 -73 0 -43 4
-62 9 -53 11 17 7 116 -5 133 -31 43 -43 83 -48 149 -6 80 -19 133 -36 154 -8
10 -8 19 0 34 9 18 18 21 61 16 28 -3 56 -8 62 -12 6 -4 8 0 4 10 -9 23 18 22
80 -4 48 -20 83 -59 83 -93 0 -9 5 -16 10 -16 17 0 11 -28 -7 -40 -17 -11 -17
-11 0 -6 20 6 22 -10 6 -50 l-10 -28 22 19 22 20 -12 -22 c-6 -12 -17 -26 -24
-30 -6 -4 -27 -26 -46 -48 -19 -22 -48 -50 -65 -63 l-31 -23 -17 22 c-10 12
-18 27 -18 34 0 7 -7 16 -16 19 -12 5 -14 1 -9 -15 13 -40 45 -104 45 -91 0 8
6 12 13 9 25 -9 157 103 157 133 0 6 6 9 13 7 6 -1 11 4 9 12 -1 7 4 18 12 25
12 10 12 20 -4 81 -10 39 -19 80 -19 92 -1 25 -46 52 -140 84 -56 20 -92 25
-56 8z"/>
<path d="M1174 1355 c-4 -8 -14 -15 -23 -16 -10 0 -8 -4 8 -10 27 -11 26 -11
35 19 8 25 -11 32 -20 7z"/>
<path d="M1215 1350 c-4 -12 -4 -24 -1 -28 4 -3 9 4 13 16 4 18 8 20 25 11 16
-9 19 -8 16 3 -8 23 -46 22 -53 -2z"/>
<path d="M1320 1330 c-15 -27 -12 -34 7 -19 11 10 14 10 9 2 -8 -15 3 -17 21
-5 9 6 8 12 -7 25 -18 15 -20 15 -30 -3z"/>
<path d="M1196 1294 c-3 -9 -1 -23 5 -32 10 -16 10 -16 5 0 -3 11 3 23 17 33
l21 15 -21 0 c-11 0 -24 -7 -27 -16z"/>
<path d="M1285 1266 c9 -13 15 -28 14 -32 -1 -5 -1 -16 0 -24 1 -12 3 -13 10
-1 10 16 -8 68 -26 75 -9 4 -9 -1 2 -18z"/>
<path d="M1779 1256 c12 -14 24 -73 23 -110 -1 -29 -17 -39 -41 -27 -19 10
-21 9 -21 -13 0 -18 6 -25 28 -28 67 -9 75 4 66 113 l-7 79 -30 0 c-24 0 -27
-2 -18 -14z"/>
<path d="M1370 1170 c-4 -20 -10 -24 -32 -22 -19 2 -28 -2 -31 -15 -4 -14 -5
-13 -6 5 -1 21 -24 31 -35 13 -3 -4 -17 -6 -31 -3 -20 3 -25 0 -25 -15 0 -17
9 -21 55 -27 30 -3 86 -1 123 5 59 10 86 8 193 -10 68 -12 130 -21 137 -21 19
0 14 28 -5 33 -49 14 -93 17 -93 7 0 -5 -4 -10 -10 -10 -5 0 -10 8 -10 19 0
14 -6 17 -25 13 -14 -2 -25 0 -25 5 0 5 -13 8 -30 5 -16 -2 -30 -8 -30 -13 0
-5 -9 -4 -19 3 -15 9 -28 9 -55 1 -34 -11 -35 -10 -38 21 -3 28 -4 29 -8 6z"/>
<path d="M2232 1080 c1 -19 5 -39 8 -45 4 -5 16 -38 26 -72 10 -35 22 -63 26
-63 3 0 9 -13 13 -30 4 -16 10 -32 15 -35 11 -7 -18 95 -32 113 -6 6 -7 12 -3
12 4 0 3 6 -3 13 -5 6 -13 27 -17 46 -4 19 -14 48 -21 65 l-14 31 2 -35z"/>
<path d="M1172 1056 c2 -25 33 -36 103 -36 23 0 27 3 15 10 -8 5 -25 10 -36
10 -12 0 -33 9 -47 20 -32 26 -37 25 -35 -4z"/>
<path d="M1310 1020 c0 -6 -7 -10 -15 -10 -18 0 -20 -32 -4 -62 9 -17 13 -18
20 -7 5 8 9 27 9 43 0 18 4 27 13 24 6 -3 62 -13 122 -23 86 -14 123 -16 165
-9 l55 10 -110 17 c-139 22 -255 29 -255 17z"/>
<path d="M2135 1005 c-42 -20 -46 -23 -24 -24 38 -1 89 19 89 35 0 18 -5 17
-65 -11z"/>
<path d="M1755 1000 c-11 -5 -32 -9 -47 -9 -45 -1 -32 -18 18 -25 53 -7 64 -3
64 25 0 21 -5 22 -35 9z"/>
<path d="M1337 953 c-4 -3 -7 -14 -7 -23 0 -11 -9 -16 -27 -15 -14 0 -28 -6
-30 -13 -3 -7 -1 -12 4 -11 21 4 43 -2 43 -12 0 -6 -9 -8 -20 -4 -14 4 -20 2
-20 -8 0 -9 5 -17 12 -19 15 -5 1 -28 -18 -28 -8 0 -14 8 -14 18 0 14 -2 15
-10 2 -7 -11 -3 -18 17 -28 22 -12 28 -12 43 5 16 16 50 107 50 132 0 12 -13
15 -23 4z"/>
<path d="M1627 891 c2 -48 6 -65 15 -63 21 6 29 25 25 59 -1 17 1 29 5 27 4
-3 8 2 8 10 0 9 5 16 10 16 6 0 10 4 10 9 0 6 -17 10 -37 9 l-38 0 2 -67z"/>
<path d="M2142 929 c-11 -12 -112 -27 -135 -21 -14 3 -18 1 -13 -6 14 -23 185
-1 193 25 5 13 -32 14 -45 2z"/>
<path d="M1963 861 c4 -26 12 -29 87 -36 35 -4 39 -3 20 4 -14 5 -37 9 -52 10
-16 1 -33 10 -43 24 l-16 22 4 -24z"/>
<path d="M2109 803 c13 -23 41 -113 41 -129 0 -7 -25 -22 -55 -35 -30 -12 -55
-29 -55 -36 0 -25 30 -25 68 0 21 14 47 27 58 29 11 2 17 10 15 19 -42 157
-47 169 -64 169 -13 0 -15 -4 -8 -17z"/>
<path d="M1626 794 c-9 -23 -9 -23 24 -11 23 9 35 9 49 0 15 -10 20 -9 24 1 8
21 -2 26 -49 26 -29 0 -44 -5 -48 -16z"/>
<path d="M2201 806 c3 -3 24 -6 47 -7 24 -2 47 -8 51 -13 4 -6 50 -93 102
-193 52 -100 98 -178 102 -174 9 9 -7 45 -100 221 -33 63 -64 127 -67 143 -6
26 -9 27 -73 27 -36 0 -64 -2 -62 -4z"/>
<path d="M1640 721 l0 -39 68 3 c86 3 82 2 82 20 0 17 -27 19 -64 5 -20 -7
-26 -6 -26 4 0 9 -7 12 -21 9 -16 -4 -20 -2 -17 8 5 15 16 15 73 5 28 -6 35
-4 35 9 0 12 -13 15 -65 15 l-65 0 0 -39z"/>
</g>
</svg>
