<?xml version="1.0" standalone="no"?>
<!DOCTYPE svg PUBLIC "-//W3C//DTD SVG 20010904//EN"
 "http://www.w3.org/TR/2001/REC-SVG-20010904/DTD/svg10.dtd">
<svg version="1.0" xmlns="http://www.w3.org/2000/svg"
 width="225.000000pt" height="225.000000pt" viewBox="0 0 225.000000 225.000000"
 preserveAspectRatio="xMidYMid meet">
<metadata>
Created by potrace 1.10, written by Peter Selinger 2001-2011
</metadata>
<g transform="translate(0.000000,225.000000) scale(0.100000,-0.100000)"
fill="#000000" stroke="none">
<path d="M1330 1867 c-11 -18 -23 -46 -26 -64 -3 -18 -11 -31 -17 -30 -6 1
-11 -4 -12 -10 0 -12 -60 -73 -71 -73 -2 0 5 13 17 30 12 16 27 27 32 23 5 -3
8 0 5 7 -5 15 -30 27 -27 13 4 -20 -2 -25 -17 -12 -13 11 -14 9 -9 -13 4 -15
2 -29 -4 -33 -6 -3 -9 -10 -6 -15 2 -4 -29 -8 -71 -8 -42 0 -73 2 -70 5 8 8
-25 38 -43 38 -9 0 -16 5 -16 10 0 6 -8 21 -18 35 -9 13 -17 20 -17 14 0 -5 6
-16 13 -24 10 -12 9 -12 -6 0 -14 10 -17 22 -14 44 3 17 3 25 0 18 -3 -9 -13
2 -24 27 -10 23 -22 41 -28 41 -5 0 -21 -14 -34 -31 -18 -23 -27 -28 -32 -19
-6 9 -4 11 5 5 8 -5 11 -4 6 3 -11 18 -34 3 -29 -19 3 -10 9 -16 14 -13 5 3 1
-16 -10 -43 -30 -77 -55 -218 -44 -250 6 -16 8 -50 5 -78 -8 -81 -4 -209 7
-271 9 -51 17 -64 53 -96 24 -21 53 -41 66 -44 16 -5 21 -11 17 -22 -3 -9 -3
-13 1 -9 8 8 34 -11 34 -25 0 -6 -8 -4 -17 3 -16 13 -17 12 -4 -3 7 -10 18
-15 23 -12 5 3 18 -2 29 -12 14 -13 16 -19 7 -25 -7 -4 -19 -2 -27 4 -12 10
-14 9 -8 -5 5 -14 2 -16 -17 -8 -27 10 -69 2 -60 -11 7 -12 -8 -11 -40 0 -15
6 -37 6 -57 1 -24 -7 -40 -6 -61 4 -27 14 -62 12 -85 -6 -7 -6 -19 -5 -32 1
-30 17 -66 13 -86 -8 -15 -17 -16 -30 -9 -93 4 -40 8 -93 9 -118 3 -84 17
-161 31 -167 8 -3 12 -8 9 -12 -2 -5 16 -12 40 -18 39 -9 48 -8 67 9 21 18 23
18 35 3 6 -10 16 -14 21 -11 5 3 22 2 38 -3 21 -5 32 -4 40 7 12 17 64 26 64
11 0 -5 5 -9 11 -9 5 0 7 5 3 12 -4 7 -3 8 4 4 6 -4 9 -13 5 -21 -4 -11 0 -14
13 -9 15 5 16 4 5 -4 -10 -7 -21 -7 -35 0 -20 10 -20 10 -6 -7 14 -17 14 -18
-8 -6 -12 6 -28 9 -35 4 -16 -10 -47 -11 -41 -1 3 4 -1 8 -10 8 -8 0 -21 3
-29 6 -10 4 -15 0 -13 -10 4 -26 12 -28 110 -28 80 0 96 -3 99 -17 4 -14 5
-14 6 2 1 12 10 17 32 17 27 0 30 -3 27 -27 -2 -22 -9 -29 -30 -31 -16 -2 -28
1 -28 7 0 6 -13 11 -30 11 -16 0 -30 -4 -30 -8 0 -5 -34 -9 -75 -10 -77 -1
-95 -6 -95 -23 0 -5 28 -7 70 -4 48 4 70 2 70 -5 0 -7 -9 -9 -22 -5 -18 6 -20
5 -11 -5 7 -8 22 -10 43 -5 29 6 30 8 13 20 -16 13 -15 14 11 9 16 -3 32 0 36
5 4 7 14 5 28 -5 12 -8 20 -19 17 -24 -3 -5 0 -12 6 -16 7 -4 9 -3 6 3 -4 6 0
14 9 17 24 9 28 7 14 -9 -7 -8 -9 -15 -5 -15 4 0 15 10 26 23 10 12 18 16 19
10 0 -7 5 -13 12 -13 9 0 9 3 0 12 -17 17 -15 33 3 18 8 -7 21 -10 30 -7 8 4
19 -2 25 -11 10 -15 11 -14 4 3 -4 11 -9 32 -12 47 -7 43 -28 34 -23 -10 1 -6
-3 -12 -9 -12 -5 0 -10 5 -10 10 0 6 -9 10 -21 10 -16 0 -19 -4 -14 -22 5 -18
4 -20 -4 -8 -6 8 -11 27 -11 42 l0 26 94 1 c52 1 98 -4 101 -9 4 -6 -7 -8 -27
-5 -26 4 -28 3 -8 -3 14 -4 26 -16 28 -25 3 -13 -4 -17 -26 -17 -18 0 -32 -6
-36 -16 -5 -12 -1 -14 15 -9 12 4 29 8 37 9 9 2 18 8 20 14 2 7 8 10 13 6 5
-3 9 1 10 8 0 7 5 2 10 -11 6 -16 6 -28 -2 -38 -7 -7 -9 -16 -6 -19 3 -3 10 3
15 13 13 25 3 93 -14 93 -7 0 -21 12 -30 26 -14 21 -15 27 -4 34 15 9 40 -11
40 -32 0 -10 -3 -9 -10 2 -5 8 -12 11 -15 8 -13 -13 7 -28 36 -28 16 0 29 -5
29 -11 0 -5 -4 -7 -10 -4 -6 4 -10 -7 -10 -25 0 -17 4 -29 9 -25 6 3 15 -4 21
-15 6 -11 16 -18 22 -14 7 4 6 9 -3 15 -10 6 -8 9 9 9 13 0 21 -4 18 -8 -3 -5
1 -9 9 -9 8 0 15 4 15 9 0 4 5 8 11 8 5 0 8 -4 5 -8 -2 -4 4 -8 14 -8 12 0 16
5 12 16 -5 12 -3 13 10 2 9 -7 24 -9 34 -5 17 6 18 5 4 -13 -14 -18 -14 -18 3
-5 16 13 22 8 18 -13 -1 -5 4 -4 12 2 8 7 17 8 21 4 4 -4 6 -2 5 3 -2 6 5 22
14 37 15 21 16 31 7 47 -6 12 -18 21 -28 20 -10 0 -12 -3 -4 -6 14 -6 17 -63
2 -63 -5 0 -10 5 -10 11 0 8 -4 8 -14 0 -11 -10 -17 -8 -25 6 -8 14 -10 14
-11 3 0 -12 -16 -16 -75 -17 l-75 -3 0 30 c0 27 3 30 33 29 l32 -1 -30 -8
c-24 -6 -26 -8 -7 -9 12 0 22 -7 22 -16 0 -20 16 -19 24 1 3 8 10 12 16 9 6
-3 7 1 4 9 -11 27 12 17 26 -12 l14 -27 4 28 c2 15 8 25 13 22 5 -4 9 -1 9 4
0 6 -4 11 -10 11 -5 0 -10 5 -10 12 0 6 3 8 6 5 4 -3 15 -2 26 4 14 7 23 7 33
-1 11 -10 13 -8 10 7 -2 12 2 20 10 20 8 0 12 -4 9 -9 -3 -5 7 -9 23 -9 15 0
44 -1 63 -1 63 -2 86 5 87 25 1 11 9 27 17 36 9 10 16 36 16 60 0 28 4 40 11
35 6 -3 3 8 -5 25 -9 17 -21 31 -27 31 -6 0 -7 5 -4 10 4 6 10 8 14 6 4 -3 8
2 8 10 0 8 -6 13 -13 10 -24 -9 -21 6 7 35 33 33 36 41 14 33 -20 -8 -19 1 2
34 17 26 17 26 0 13 -16 -12 -17 -12 -11 5 4 10 4 16 0 12 -4 -4 -21 9 -38 27
-28 32 -32 34 -81 28 -29 -3 -60 -13 -69 -21 -16 -13 -22 -11 -20 9 1 3 -4 6
-11 6 -141 10 -207 11 -207 3 0 -5 -10 -14 -21 -21 -15 -8 -19 -8 -15 0 4 6 2
11 -5 11 -8 0 -7 5 2 17 13 17 13 17 -13 0 -15 -9 -35 -17 -45 -16 -15 0 -15
1 2 9 12 4 27 15 34 24 9 10 22 14 35 11 17 -5 18 -4 6 4 -15 11 -14 12 20 16
11 1 23 4 28 5 4 1 10 2 14 1 4 0 5 6 1 15 -5 15 -7 15 -15 0 -9 -16 -28 -13
-28 4 0 15 78 63 90 55 6 -3 9 -1 8 7 -2 7 3 12 10 10 8 -1 11 1 8 6 -3 5 3
18 13 28 11 12 20 43 24 79 3 33 11 61 17 63 5 2 7 8 4 13 -3 6 -7 47 -9 92
-2 45 -6 90 -10 100 -4 9 -3 17 1 17 16 0 15 103 -2 177 -9 39 -13 82 -9 95 4
16 3 19 -3 10 -7 -11 -12 -6 -21 19 -9 25 -8 35 1 42 9 6 7 7 -6 3 -12 -4 -17
-2 -14 6 2 7 -11 27 -30 45 l-33 32 -19 -32z m56 -45 c13 -19 24 -43 24 -53 0
-9 5 -19 10 -21 6 -2 13 -34 17 -73 4 -49 9 -64 14 -50 6 13 7 4 5 -27 -1 -27
1 -48 6 -48 5 0 4 -9 -2 -20 -6 -11 -7 -20 -3 -20 4 0 -1 -7 -11 -15 -14 -11
-16 -15 -5 -15 12 0 12 -2 0 -9 -12 -8 -12 -12 -2 -25 8 -9 10 -16 6 -16 -4 0
-3 -6 3 -12 5 -7 10 -32 9 -55 0 -38 -1 -41 -19 -32 -18 10 -18 8 2 -28 21
-40 25 -58 11 -49 -5 3 -6 -15 -3 -41 4 -36 2 -44 -8 -38 -9 5 -11 4 -6 -3 8
-13 -32 -97 -42 -88 -3 4 -19 -6 -35 -21 -17 -16 -26 -21 -22 -13 8 13 7 13
-9 1 -9 -8 -24 -28 -32 -44 -9 -16 -18 -27 -20 -24 -3 3 -16 -5 -28 -17 -13
-11 -44 -34 -70 -49 l-46 -29 0 -154 c0 -102 -4 -154 -11 -154 -5 0 -7 5 -3
12 4 7 3 8 -4 4 -7 -4 -12 -2 -12 3 0 6 -4 11 -9 11 -6 0 -9 -9 -8 -20 1 -16
7 -18 32 -15 72 11 70 12 73 -22 l3 -33 -65 0 -66 0 0 184 0 185 33 3 32 4
-28 12 c-16 7 -26 16 -22 21 3 5 0 13 -6 17 -8 4 -9 3 -5 -4 4 -7 4 -12 -1
-12 -15 0 -73 40 -73 50 0 6 -4 9 -10 5 -5 -3 -16 7 -24 23 -8 16 -23 35 -32
43 -16 12 -17 12 -9 -1 8 -13 7 -13 -11 0 -10 8 -23 21 -27 28 -5 7 -12 10
-16 7 -17 -10 -64 101 -59 138 2 20 0 33 -4 31 -13 -9 -9 10 12 49 19 36 20
37 2 28 -17 -9 -19 -6 -16 32 6 78 9 92 24 89 10 -2 11 0 2 11 -7 8 -9 17 -5
20 3 4 1 7 -5 7 -7 0 -12 8 -12 18 0 10 -5 23 -12 30 -8 8 -8 12 -1 12 6 0 9
17 7 42 -4 47 5 45 15 -4 5 -21 7 1 7 60 -1 58 3 95 10 100 6 4 15 21 18 37 6
28 53 92 61 84 1 -2 14 -38 28 -79 14 -41 31 -76 38 -79 11 -3 11 0 -1 15 -8
10 4 2 26 -18 26 -25 49 -38 67 -38 15 0 27 -4 27 -10 0 -5 -8 -10 -17 -10
-10 0 -25 -5 -33 -10 -11 -7 -6 -8 18 -5 18 2 39 9 47 15 10 8 26 7 65 -6 28
-9 53 -14 56 -11 4 3 -10 9 -30 12 -42 8 -48 25 -9 25 18 0 41 13 66 38 33 30
37 33 27 12 -11 -22 -10 -23 2 -10 8 8 22 42 33 75 25 80 37 104 43 86 3 -8
15 -30 28 -49z m-340 -906 c18 -14 17 -15 -13 -14 -32 1 -40 8 -26 21 9 10 17
9 39 -7z m184 -26 c34 0 36 -6 47 -180 7 -116 8 -121 14 -65 4 33 7 92 8 130
2 101 7 115 45 115 l31 0 -20 -185 -20 -185 -52 0 c-36 0 -53 4 -53 13 0 14
-27 253 -35 315 -5 33 -10 42 -21 38 -9 -3 -12 -2 -9 5 4 6 14 8 22 5 8 -3 27
-6 43 -6z m-616 -52 c3 -29 6 -84 7 -123 2 -106 16 -149 18 -54 0 42 4 110 7
152 l7 77 42 0 c43 0 43 0 49 -42 3 -24 6 -89 7 -146 1 -56 5 -105 10 -108 5
-3 9 21 9 54 0 32 3 100 6 150 l7 92 34 0 c34 0 35 0 29 -37 -3 -21 -10 -90
-16 -153 -18 -194 -13 -180 -69 -180 l-48 0 -9 153 c-7 137 -9 145 -15 87 -4
-36 -7 -104 -8 -152 l-1 -88 -49 0 c-55 0 -54 -2 -65 110 -3 30 -10 96 -16
145 -13 122 -15 115 24 115 33 0 33 -1 40 -52z m397 33 c23 -18 24 -26 27
-158 3 -123 2 -141 -15 -161 -41 -51 -132 -42 -154 15 -6 16 -9 82 -7 156 3
121 4 130 27 148 30 25 92 25 122 0z m507 -13 c-3 -29 -7 -33 -30 -33 -26 1
-28 -2 -28 -42 0 -39 2 -43 25 -43 22 0 25 -4 25 -34 0 -30 -2 -33 -25 -28
-24 4 -25 2 -25 -47 0 -50 1 -51 30 -51 27 0 30 -3 30 -30 l0 -30 -65 0 -65 0
0 185 0 185 66 0 65 0 -3 -32z m162 12 c11 -11 20 -28 21 -37 0 -10 2 -30 4
-46 3 -26 2 -27 -31 -25 -31 2 -34 5 -34 35 0 26 -4 33 -20 33 -29 0 -28 -54
2 -78 84 -68 83 -67 83 -131 -1 -75 -20 -101 -76 -101 -20 0 -45 3 -54 6 -22
9 -45 57 -45 94 0 28 3 30 35 30 33 0 35 -2 35 -35 0 -28 4 -35 20 -35 16 0
20 7 20 35 0 31 -6 40 -45 67 -25 17 -47 39 -50 47 -18 63 -8 133 23 150 30
18 90 13 112 -9z m-276 -374 c8 3 17 1 21 -5 4 -7 -1 -8 -12 -4 -16 6 -16 4 2
-18 11 -13 13 -19 6 -12 -10 9 -19 9 -34 1 -16 -8 -19 -7 -15 4 4 9 -1 14 -13
15 -13 1 -17 -3 -12 -10 3 -7 -4 -3 -17 8 -22 19 -23 19 -16 1 5 -15 4 -17 -8
-7 -10 8 -16 9 -21 1 -8 -13 -28 -13 -23 1 2 6 8 11 13 11 6 0 15 4 21 9 6 5
19 7 28 3 10 -4 18 0 22 10 6 15 8 15 20 -1 12 -16 13 -16 8 7 -4 24 -4 24 5
3 6 -14 16 -20 25 -17z m-379 14 c-6 -10 8 -14 34 -10 13 2 13 0 0 -16 -13
-16 -12 -16 9 -5 12 6 22 9 22 6 0 -3 0 -8 0 -12 1 -11 -34 -13 -47 -1 -7 5
-18 8 -25 5 -7 -2 -19 2 -27 10 -12 13 -11 14 8 8 12 -3 21 -3 20 2 -2 13 1
23 7 23 3 0 2 -4 -1 -10z"/>
<path d="M889 1805 c-1 -16 -1 -35 0 -42 1 -6 -3 -14 -9 -18 -5 -3 -10 -15
-10 -26 0 -11 -4 -17 -10 -14 -10 6 -12 -7 -12 -90 0 -54 3 -73 15 -92 5 -7 4
-13 -1 -13 -6 0 -13 -7 -16 -16 -3 -9 -2 -12 5 -9 5 4 16 2 23 -4 10 -8 15 -3
23 24 6 19 8 35 3 35 -4 0 -3 19 2 43 15 61 15 208 1 232 -12 19 -12 18 -14
-10z"/>
<path d="M1344 1808 c-11 -33 -7 -181 6 -229 9 -32 9 -44 -1 -53 -9 -8 -10 -8
-4 3 5 9 4 12 -3 7 -8 -5 -12 2 -12 19 0 14 -4 24 -9 21 -6 -4 -8 24 -5 66 3
55 2 69 -6 55 -6 -9 -8 -27 -4 -40 6 -21 5 -21 -12 -6 -11 8 -25 14 -31 13 -7
-1 -19 -2 -25 -3 -7 -1 6 -13 30 -27 23 -14 42 -31 42 -37 0 -8 -3 -8 -8 -2
-4 6 -11 11 -17 12 -5 1 -19 5 -30 9 -13 5 -9 -1 10 -17 17 -13 32 -28 34 -34
2 -5 16 -22 31 -37 15 -15 31 -35 34 -45 6 -14 9 -15 15 -4 5 8 14 10 21 6 8
-5 11 -4 6 3 -3 5 -3 12 1 15 5 2 2 2 -6 0 -10 -2 -11 4 -6 24 18 68 20 101 9
143 -7 25 -13 41 -14 35 -3 -14 -21 44 -26 85 -6 43 -10 47 -20 18z"/>
<path d="M970 1657 c-17 -9 -28 -30 -41 -77 -10 -36 -18 -67 -19 -69 0 -2 16
17 35 42 19 25 43 51 53 57 15 9 14 10 -5 5 -32 -9 -29 11 3 28 20 10 23 15
12 20 -8 3 -25 0 -38 -6z"/>
<path d="M1025 1597 c-16 -12 -43 -34 -60 -50 l-30 -28 32 18 c18 10 33 22 33
26 0 5 5 5 10 2 6 -3 10 -2 10 3 0 6 15 19 33 31 17 11 25 21 17 21 -8 -1 -28
-11 -45 -23z"/>
<path d="M1184 1612 c3 -5 33 -28 68 -51 l62 -43 -30 34 c-16 19 -32 33 -36
31 -5 -2 -8 0 -8 5 0 5 -11 14 -25 20 -31 14 -38 15 -31 4z"/>
<path d="M1143 1578 c1 -17 15 -38 37 -58 30 -27 33 -33 22 -51 -7 -11 -10
-25 -6 -31 5 -8 2 -9 -9 -5 -18 7 -24 -8 -8 -18 8 -5 25 11 26 25 0 3 12 22
26 42 l25 37 37 -19 c40 -22 57 -25 57 -11 0 5 -6 8 -12 8 -7 -1 -30 7 -51 18
-36 18 -40 19 -51 3 -10 -13 -15 -15 -24 -6 -7 7 -12 18 -12 24 0 7 -8 15 -19
19 -10 3 -23 15 -29 28 -10 21 -10 21 -9 -5z"/>
<path d="M1092 1570 c-7 -12 -16 -18 -21 -16 -9 6 -31 -36 -31 -62 -1 -12 -6
-8 -16 11 -18 32 -28 33 -72 7 -18 -11 -37 -18 -43 -15 -5 4 -9 1 -9 -4 0 -16
16 -13 60 9 41 21 42 20 65 -24 5 -11 17 -21 25 -24 12 -4 12 -2 3 8 -9 10 -9
19 3 42 8 16 18 26 23 24 10 -7 35 38 30 53 -2 6 -10 2 -17 -9z"/>
<path d="M1098 1487 c-2 -20 0 -37 4 -37 14 0 19 25 10 51 -9 22 -10 21 -14
-14z"/>
<path d="M1138 1513 c-7 -34 -3 -60 9 -60 7 0 13 9 13 19 0 10 -4 18 -10 18
-5 0 -7 7 -4 15 4 8 3 15 0 15 -3 0 -7 -3 -8 -7z"/>
<path d="M1332 1450 c-10 -16 -16 -18 -39 -9 -38 14 -70 4 -77 -26 -4 -14 -11
-23 -16 -20 -14 9 -12 -29 1 -42 14 -14 4 -44 -13 -41 -7 2 -13 -3 -12 -9 1
-7 2 -25 3 -40 1 -35 18 -19 23 22 2 19 8 29 17 27 9 -2 11 3 7 15 -5 13 0 11
19 -7 17 -16 25 -19 23 -10 -2 8 -17 26 -35 41 -18 14 -30 29 -26 33 3 3 26 6
49 6 36 0 49 6 78 34 19 19 31 37 28 40 -9 10 -17 7 -30 -14z m-38 -29 c7 -11
-17 -21 -50 -21 -15 0 -23 4 -19 11 4 6 13 8 21 5 8 -3 14 -1 14 4 0 12 27 13
34 1z"/>
<path d="M893 1453 c9 -2 17 -9 17 -14 0 -25 42 -49 85 -49 53 0 56 -12 15
-47 -16 -13 -30 -30 -30 -36 0 -6 11 0 25 13 17 16 25 19 25 9 0 -8 9 1 20 19
19 32 19 59 0 47 -5 -3 -12 6 -16 20 -7 30 -39 40 -76 26 -20 -8 -29 -7 -38 5
-7 7 -20 13 -29 13 -13 -1 -13 -2 2 -6z m97 -33 c0 -5 6 -7 14 -4 8 3 17 1 21
-5 4 -7 -4 -11 -19 -11 -33 0 -57 10 -50 21 7 12 34 11 34 -1z"/>
<path d="M834 1442 c-17 -11 -24 -89 -8 -89 7 0 11 3 9 7 -2 4 0 24 6 44 11
41 10 49 -7 38z"/>
<path d="M1400 1444 c0 -22 24 -94 32 -94 9 0 2 74 -9 93 -5 8 -23 10 -23 1z"/>
<path d="M1050 1428 c0 -17 40 -29 58 -18 15 10 14 11 -6 6 -17 -3 -22 -1 -18
9 3 9 -2 13 -15 12 -10 -1 -19 -5 -19 -9z"/>
<path d="M953 1368 c-5 -9 -5 -9 25 -12 12 -2 27 3 32 9 7 9 2 12 -21 11 -17
-1 -33 -4 -36 -8z"/>
<path d="M1243 1363 c9 -10 23 -13 37 -8 28 9 19 17 -21 20 -28 3 -29 1 -16
-12z"/>
<path d="M920 1355 c-9 -43 13 -117 38 -122 15 -4 16 13 2 22 -6 4 -8 11 -5
16 4 5 2 9 -3 9 -5 0 -14 19 -19 43 -6 23 -12 38 -13 32z"/>
<path d="M1327 1353 c-4 -3 -7 -17 -7 -29 0 -13 -9 -39 -19 -57 -15 -26 -16
-34 -5 -34 8 0 14 8 14 18 0 9 6 19 13 22 7 3 13 23 14 46 2 42 1 46 -10 34z"/>
<path d="M879 1328 c-1 -7 -1 -17 0 -22 1 -5 -8 -20 -21 -33 -19 -20 -20 -25
-8 -33 8 -5 11 -10 5 -10 -5 0 -11 -17 -12 -38 l-1 -37 14 39 c20 56 24 55 17
-6 -4 -40 -1 -63 12 -87 9 -18 19 -30 22 -27 3 3 0 13 -7 22 -10 11 -13 48
-12 130 0 63 -1 114 -4 114 -2 0 -5 -6 -5 -12z"/>
<path d="M1365 1301 c3 -21 1 -49 -3 -62 -5 -12 -5 -42 -1 -67 7 -32 5 -52 -7
-75 l-15 -32 22 25 c18 21 20 34 17 89 -2 36 -2 59 0 52 3 -9 8 -9 20 1 15 12
16 11 4 -4 -10 -13 -11 -25 -5 -45 l10 -28 5 27 c3 15 1 25 -3 22 -12 -7 -11
10 1 22 7 7 3 20 -12 39 -13 16 -22 37 -20 46 2 10 -2 20 -8 24 -6 4 -8 -7 -5
-34z"/>
<path d="M1060 1309 c0 -5 -4 -8 -9 -4 -16 9 -34 -35 -28 -71 4 -20 1 -35 -6
-38 -9 -3 -9 -5 0 -5 7 -1 24 -12 39 -26 14 -13 30 -22 35 -19 5 3 9 -2 9 -12
0 -13 3 -14 13 -5 8 6 17 8 21 4 3 -4 13 2 22 13 8 10 12 13 9 5 -5 -9 0 -8
17 3 14 9 32 34 40 55 13 32 13 43 2 67 l-13 29 5 -37 c4 -32 2 -38 -13 -38
-25 0 -43 19 -44 45 0 18 -1 18 -10 -3 -5 -13 -7 -28 -3 -33 3 -5 -7 -9 -21
-9 -14 0 -24 4 -21 9 4 5 2 20 -3 33 -10 23 -10 23 -10 1 -1 -12 -6 -25 -12
-29 -8 -5 -9 6 -4 35 4 27 3 41 -4 41 -6 0 -11 -5 -11 -11z m-4 -35 c-12 -31
15 -51 69 -49 54 1 83 -18 63 -42 -13 -16 -48 -17 -48 -2 0 6 7 8 16 5 23 -9
37 3 23 20 -8 10 -16 11 -31 3 -11 -6 -26 -8 -35 -5 -11 5 -13 2 -9 -10 8 -22
-1 -34 -21 -27 -15 6 -15 7 0 12 11 4 14 10 7 20 -7 13 -11 13 -27 0 -17 -13
-17 -13 -4 4 13 16 12 19 -7 24 -15 4 -20 11 -18 27 3 11 5 24 5 29 1 4 6 7
12 7 6 0 8 -7 5 -16z"/>
<path d="M977 1220 c-20 -48 -21 -61 -4 -80 6 -7 -2 -3 -20 11 -18 13 -32 33
-32 44 -1 14 -4 16 -12 8 -8 -8 -3 -30 16 -79 14 -38 24 -59 21 -46 -3 18 -2
21 9 12 9 -8 14 -6 20 7 6 16 8 15 16 -6 6 -14 8 -36 6 -50 -2 -14 -2 -20 0
-13 3 6 7 12 10 12 10 0 53 -51 53 -62 0 -7 -7 -3 -16 8 -14 18 -15 18 -4 -4
l11 -23 27 21 c25 20 27 20 33 3 6 -13 8 -14 8 -3 1 13 2 13 11 0 8 -12 10
-12 16 3 3 9 10 14 15 11 5 -3 5 -13 -1 -24 -5 -10 -10 -25 -9 -32 0 -7 4 -3
9 10 5 12 14 23 20 23 5 1 15 2 22 3 6 0 13 8 15 16 4 13 3 13 -6 0 -6 -8 -11
-10 -11 -5 0 12 20 43 20 32 0 -20 28 22 35 53 l7 34 14 -25 c7 -13 13 -18 14
-11 0 8 5 10 13 6 6 -4 9 -4 5 1 -4 4 -1 14 7 22 8 8 15 23 15 33 0 10 5 22
10 25 6 3 10 15 10 26 0 10 -4 19 -10 19 -5 0 -10 -8 -10 -17 0 -9 -3 -14 -6
-10 -3 3 -16 -4 -28 -16 -11 -13 -18 -18 -13 -13 13 18 7 54 -14 77 -11 13
-17 17 -13 9 11 -20 5 -81 -9 -98 -6 -8 -12 -21 -13 -30 -3 -14 -21 -32 -35
-32 -3 0 -22 11 -41 23 l-34 24 -30 -23 c-43 -35 -61 -31 -83 19 -26 59 -32
87 -20 109 6 11 9 23 7 29 -2 5 -11 -9 -21 -31z m182 -156 c12 -15 21 -21 21
-14 0 7 3 10 7 7 3 -4 12 -2 20 4 9 8 13 8 13 0 0 -18 -63 -45 -100 -42 -34 3
-90 26 -90 37 0 4 11 3 25 0 18 -5 27 -2 31 9 3 8 10 12 15 9 5 -3 9 0 9 5 0
20 28 11 49 -15z"/>
<path d="M902 850 c2 -18 -3 -30 -10 -26 -7 4 -8 -15 -3 -62 0 -7 6 -10 11 -7
6 4 7 13 2 23 -9 18 10 67 21 55 4 -3 7 -62 7 -130 0 -116 1 -123 20 -123 19
0 20 7 20 125 0 117 -1 125 -19 125 -24 0 -36 16 -19 23 7 3 3 4 -9 4 -12 -1
-21 -4 -21 -7z"/>
<path d="M1408 768 c-3 -7 -2 -23 1 -35 5 -19 8 -20 24 -8 18 13 18 13 -2 20
-12 4 -18 12 -14 21 3 7 3 14 0 14 -3 0 -7 -6 -9 -12z"/>
<path d="M1490 469 c0 -5 -4 -8 -9 -5 -11 7 -21 -28 -11 -43 5 -9 9 -9 17 1
10 13 16 58 7 58 -2 0 -4 -5 -4 -11z"/>
<path d="M710 420 c0 -16 5 -30 10 -30 6 0 10 14 10 30 0 17 -4 30 -10 30 -5
0 -10 -13 -10 -30z"/>
<path d="M768 433 c12 -2 22 -10 22 -16 0 -7 15 -13 33 -14 l32 -1 -27 10
c-16 5 -28 14 -28 19 0 5 -12 8 -27 8 -24 -2 -25 -2 -5 -6z"/>
<path d="M960 420 c0 -13 5 -17 20 -13 24 6 22 25 -3 29 -11 1 -17 -5 -17 -16z"/>
<path d="M1120 416 c0 -31 16 -42 28 -19 12 22 5 43 -14 43 -8 0 -14 -10 -14
-24z"/>
</g>
</svg>
